<svg width="401" height="52" viewBox="0 0 401 52" fill="none" xmlns="http://www.w3.org/2000/svg">
<path d="M1.862 47.07C1.64733 47.07 1.47467 47.0047 1.344 46.874C1.21333 46.7433 1.148 46.566 1.148 46.342V37.774C1.148 37.5593 1.21333 37.3867 1.344 37.256C1.47467 37.1253 1.64733 37.06 1.862 37.06C2.07667 37.06 2.24933 37.1253 2.38 37.256C2.51067 37.3867 2.576 37.5593 2.576 37.774V41.4H4.004L7.28 37.34C7.42933 37.1533 7.60667 37.06 7.812 37.06C7.98 37.06 8.12467 37.1207 8.246 37.242C8.37667 37.3633 8.442 37.508 8.442 37.676C8.442 37.8347 8.38133 37.9887 8.26 38.138L5.404 41.652C5.74 41.7547 6.01533 41.8853 6.23 42.044C6.454 42.2027 6.65467 42.408 6.832 42.66C7.01867 42.912 7.24267 43.2713 7.504 43.738L8.778 46.006C8.85267 46.1553 8.89 46.286 8.89 46.398C8.89 46.5847 8.82 46.7433 8.68 46.874C8.54 47.0047 8.38133 47.07 8.204 47.07C7.93333 47.07 7.728 46.9393 7.588 46.678L6.118 44.018C5.81 43.486 5.50667 43.1127 5.208 42.898C4.91867 42.6833 4.51267 42.576 3.99 42.576H2.576V46.342C2.576 46.566 2.51067 46.7433 2.38 46.874C2.24933 47.0047 2.07667 47.07 1.862 47.07ZM13.2175 47.098C12.5455 47.098 11.9529 46.9533 11.4395 46.664C10.9355 46.3747 10.5435 45.964 10.2635 45.432C9.99286 44.8907 9.85753 44.2653 9.85753 43.556C9.85753 42.8373 9.99286 42.212 10.2635 41.68C10.5435 41.1387 10.9355 40.7233 11.4395 40.434C11.9529 40.1447 12.5455 40 13.2175 40C13.8895 40 14.4775 40.1447 14.9815 40.434C15.4949 40.7233 15.8869 41.1387 16.1575 41.68C16.4375 42.212 16.5775 42.8373 16.5775 43.556C16.5775 44.2653 16.4375 44.8907 16.1575 45.432C15.8869 45.964 15.4949 46.3747 14.9815 46.664C14.4775 46.9533 13.8895 47.098 13.2175 47.098ZM13.2175 45.978C13.8429 45.978 14.3189 45.7727 14.6455 45.362C14.9815 44.9513 15.1495 44.3493 15.1495 43.556C15.1495 42.772 14.9815 42.1747 14.6455 41.764C14.3095 41.344 13.8335 41.134 13.2175 41.134C12.6015 41.134 12.1255 41.344 11.7895 41.764C11.4535 42.1747 11.2855 42.772 11.2855 43.556C11.2855 44.3493 11.4489 44.9513 11.7755 45.362C12.1115 45.7727 12.5922 45.978 13.2175 45.978ZM21.8199 40C22.4079 40 22.9305 40.1493 23.3879 40.448C23.8545 40.7467 24.2139 41.1667 24.4659 41.708C24.7272 42.2493 24.8579 42.8747 24.8579 43.584C24.8579 44.284 24.7319 44.9 24.4799 45.432C24.2279 45.964 23.8685 46.3747 23.4019 46.664C22.9445 46.9533 22.4172 47.098 21.8199 47.098C21.3065 47.098 20.8539 46.9907 20.4619 46.776C20.0699 46.552 19.7712 46.2347 19.5659 45.824V48.946C19.5659 49.142 19.5005 49.296 19.3699 49.408C19.2485 49.5293 19.0852 49.59 18.8799 49.59C18.6652 49.59 18.4879 49.5293 18.3479 49.408C18.2172 49.2867 18.1519 49.1233 18.1519 48.918V40.714C18.1519 40.5087 18.2172 40.3453 18.3479 40.224C18.4785 40.0933 18.6512 40.028 18.8659 40.028C19.0712 40.028 19.2392 40.0933 19.3699 40.224C19.5005 40.3453 19.5659 40.5087 19.5659 40.714V41.288C19.7712 40.8773 20.0699 40.56 20.4619 40.336C20.8539 40.112 21.3065 40 21.8199 40ZM21.4839 45.978C22.0999 45.978 22.5759 45.7727 22.9119 45.362C23.2479 44.942 23.4159 44.3493 23.4159 43.584C23.4159 42.8093 23.2432 42.2073 22.8979 41.778C22.5619 41.3487 22.0905 41.134 21.4839 41.134C20.8679 41.134 20.3919 41.344 20.0559 41.764C19.7292 42.184 19.5659 42.7813 19.5659 43.556C19.5659 44.3307 19.7292 44.928 20.0559 45.348C20.3919 45.768 20.8679 45.978 21.4839 45.978ZM28.6354 47.098C27.6834 47.098 26.8714 46.8973 26.1994 46.496C25.9567 46.3653 25.8354 46.1833 25.8354 45.95C25.8354 45.81 25.8867 45.6933 25.9894 45.6C26.092 45.4973 26.2227 45.446 26.3814 45.446C26.4934 45.446 26.6054 45.474 26.7174 45.53C27.0067 45.6887 27.2914 45.8053 27.5714 45.88C27.8607 45.9547 28.178 45.992 28.5234 45.992C28.9807 45.992 29.3774 45.9033 29.7134 45.726C30.0494 45.5487 30.2174 45.278 30.2174 44.914C30.2174 44.3167 29.7927 44.018 28.9434 44.018H27.9494C27.7907 44.018 27.66 43.9713 27.5574 43.878C27.464 43.7753 27.4174 43.6447 27.4174 43.486C27.4174 43.3367 27.4687 43.2153 27.5714 43.122C27.674 43.0193 27.8 42.968 27.9494 42.968H28.8594C29.2514 42.968 29.55 42.884 29.7554 42.716C29.97 42.5387 30.0774 42.31 30.0774 42.03C30.0774 41.7407 29.956 41.5213 29.7134 41.372C29.4707 41.2133 29.1254 41.134 28.6774 41.134C28.3134 41.134 27.9914 41.1713 27.7114 41.246C27.4407 41.3207 27.1654 41.4327 26.8854 41.582C26.7734 41.6287 26.6707 41.652 26.5774 41.652C26.428 41.652 26.2974 41.6007 26.1854 41.498C26.0827 41.3953 26.0314 41.2787 26.0314 41.148C26.0314 40.9147 26.1574 40.7373 26.4094 40.616C27.1467 40.2053 27.9867 40 28.9294 40C29.7974 40 30.4507 40.168 30.8894 40.504C31.3374 40.84 31.5614 41.288 31.5614 41.848C31.5614 42.1933 31.454 42.5107 31.2394 42.8C31.0247 43.0893 30.726 43.2993 30.3434 43.43C31.2394 43.626 31.6874 44.1533 31.6874 45.012C31.6874 45.432 31.552 45.8007 31.2814 46.118C31.0107 46.4353 30.642 46.678 30.1754 46.846C29.7087 47.014 29.1954 47.098 28.6354 47.098ZM37.9213 40.532C38.052 40.3453 38.178 40.2147 38.2993 40.14C38.4206 40.0653 38.584 40.028 38.7893 40.028C39.0133 40.028 39.1906 40.0933 39.3213 40.224C39.452 40.3453 39.5173 40.5133 39.5173 40.728V46.384C39.5173 46.5893 39.4566 46.7573 39.3353 46.888C39.214 47.0093 39.0506 47.07 38.8453 47.07C38.6493 47.07 38.486 47.0093 38.3553 46.888C38.234 46.7573 38.1733 46.5893 38.1733 46.384V41.932L34.8133 46.594C34.6826 46.7807 34.552 46.9067 34.4213 46.972C34.3 47.0373 34.146 47.07 33.9593 47.07C33.7446 47.07 33.5673 47.0093 33.4273 46.888C33.2966 46.7573 33.2313 46.5893 33.2313 46.384V40.714C33.2313 40.518 33.292 40.3547 33.4133 40.224C33.544 40.0933 33.712 40.028 33.9173 40.028C34.1133 40.028 34.272 40.0933 34.3933 40.224C34.524 40.3547 34.5893 40.518 34.5893 40.714V45.124L37.9213 40.532ZM42.1484 47.07C41.9338 47.07 41.7611 47.0093 41.6304 46.888C41.4998 46.7667 41.4344 46.6033 41.4344 46.398V40.7C41.4344 40.4947 41.4998 40.3313 41.6304 40.21C41.7611 40.0887 41.9338 40.028 42.1484 40.028C42.3631 40.028 42.5311 40.0887 42.6524 40.21C42.7831 40.3313 42.8484 40.4947 42.8484 40.7V42.94H46.2084V40.7C46.2084 40.4947 46.2738 40.3313 46.4044 40.21C46.5351 40.0887 46.7078 40.028 46.9224 40.028C47.1371 40.028 47.3051 40.0887 47.4264 40.21C47.5571 40.3313 47.6224 40.4947 47.6224 40.7L47.6364 46.356C47.6364 46.5707 47.5711 46.7433 47.4404 46.874C47.3098 47.0047 47.1371 47.07 46.9224 47.07C46.7078 47.07 46.5351 47.0047 46.4044 46.874C46.2738 46.7433 46.2084 46.5707 46.2084 46.356V44.06H42.8484V46.398C42.8484 46.6033 42.7831 46.7667 42.6524 46.888C42.5311 47.0093 42.3631 47.07 42.1484 47.07ZM52.4398 40C53.3452 40 54.0172 40.2287 54.4558 40.686C54.9038 41.1433 55.1278 41.8387 55.1278 42.772V46.398C55.1278 46.6127 55.0672 46.7807 54.9458 46.902C54.8245 47.014 54.6565 47.07 54.4418 47.07C54.2365 47.07 54.0732 47.0093 53.9518 46.888C53.8305 46.7667 53.7698 46.6033 53.7698 46.398V45.88C53.5925 46.272 53.3265 46.5753 52.9718 46.79C52.6265 46.9953 52.2205 47.098 51.7538 47.098C51.3058 47.098 50.8952 47.0093 50.5218 46.832C50.1578 46.6453 49.8685 46.3933 49.6538 46.076C49.4392 45.7587 49.3318 45.3993 49.3318 44.998C49.3225 44.494 49.4485 44.102 49.7098 43.822C49.9712 43.5327 50.3958 43.3273 50.9838 43.206C51.5718 43.0753 52.3885 43.01 53.4338 43.01H53.7558V42.604C53.7558 42.0813 53.6485 41.7033 53.4338 41.47C53.2192 41.2367 52.8738 41.12 52.3978 41.12C52.0712 41.12 51.7632 41.162 51.4738 41.246C51.1845 41.33 50.8672 41.4513 50.5218 41.61C50.2698 41.75 50.0925 41.82 49.9898 41.82C49.8498 41.82 49.7332 41.7687 49.6398 41.666C49.5558 41.5633 49.5138 41.4327 49.5138 41.274C49.5138 41.134 49.5512 41.0127 49.6258 40.91C49.7098 40.798 49.8405 40.6907 50.0178 40.588C50.3445 40.4107 50.7272 40.2707 51.1658 40.168C51.6045 40.056 52.0292 40 52.4398 40ZM52.0058 46.048C52.5192 46.048 52.9392 45.8753 53.2658 45.53C53.5925 45.1753 53.7558 44.7227 53.7558 44.172V43.808H53.5038C52.7758 43.808 52.2158 43.8407 51.8238 43.906C51.4318 43.9713 51.1518 44.0833 50.9838 44.242C50.8158 44.3913 50.7318 44.6107 50.7318 44.9C50.7318 45.236 50.8532 45.5113 51.0958 45.726C51.3385 45.9407 51.6418 46.048 52.0058 46.048Z" fill="black"/>
<circle cx="29" cy="16" r="15.5" fill="white" stroke="#424242"/>
<path d="M24 17.2941L27.3333 21L34 12" stroke="black" stroke-width="2" stroke-linecap="round" stroke-linejoin="round"/>
<path d="M132.39 47.112C131.457 47.112 130.645 46.9067 129.954 46.496C129.273 46.0853 128.745 45.502 128.372 44.746C127.999 43.99 127.812 43.0987 127.812 42.072C127.812 41.036 127.994 40.14 128.358 39.384C128.731 38.6187 129.263 38.0353 129.954 37.634C130.645 37.2233 131.457 37.018 132.39 37.018C133.333 37.018 134.149 37.2233 134.84 37.634C135.531 38.0353 136.058 38.6187 136.422 39.384C136.795 40.14 136.982 41.0313 136.982 42.058C136.982 43.0847 136.795 43.9807 136.422 44.746C136.058 45.502 135.531 46.0853 134.84 46.496C134.149 46.9067 133.333 47.112 132.39 47.112ZM132.39 45.936C133.379 45.936 134.149 45.6 134.7 44.928C135.251 44.256 135.526 43.2993 135.526 42.058C135.526 40.8167 135.251 39.8647 134.7 39.202C134.159 38.53 133.389 38.194 132.39 38.194C131.41 38.194 130.645 38.53 130.094 39.202C129.553 39.8647 129.282 40.8167 129.282 42.058C129.282 43.2993 129.553 44.256 130.094 44.928C130.645 45.6 131.41 45.936 132.39 45.936ZM142.603 49.688C142.397 49.688 142.229 49.6227 142.099 49.492C141.977 49.3707 141.917 49.2073 141.917 49.002V47.084C141.329 47.0747 140.764 46.944 140.223 46.692C139.691 46.44 139.252 46.0527 138.907 45.53C138.561 44.998 138.389 44.3447 138.389 43.57C138.389 42.7953 138.561 42.1467 138.907 41.624C139.252 41.092 139.691 40.7 140.223 40.448C140.764 40.196 141.329 40.0653 141.917 40.056V37.648C141.917 37.4427 141.977 37.2793 142.099 37.158C142.229 37.0273 142.397 36.962 142.603 36.962C142.808 36.962 142.971 37.0273 143.093 37.158C143.223 37.2793 143.289 37.4427 143.289 37.648V40.056C143.867 40.0653 144.423 40.196 144.955 40.448C145.496 40.7 145.939 41.092 146.285 41.624C146.63 42.1467 146.803 42.7953 146.803 43.57C146.803 44.3447 146.63 44.998 146.285 45.53C145.939 46.0527 145.496 46.44 144.955 46.692C144.423 46.944 143.867 47.0747 143.289 47.084V49.002C143.289 49.2073 143.223 49.3707 143.093 49.492C142.971 49.6227 142.808 49.688 142.603 49.688ZM141.917 41.12C141.142 41.1387 140.587 41.3907 140.251 41.876C139.924 42.352 139.761 42.9167 139.761 43.57C139.761 44.2233 139.924 44.7927 140.251 45.278C140.587 45.754 141.142 46.0013 141.917 46.02V41.12ZM143.275 46.02C144.049 46.0013 144.605 45.754 144.941 45.278C145.277 44.7927 145.445 44.2233 145.445 43.57C145.445 42.9167 145.277 42.352 144.941 41.876C144.605 41.3907 144.049 41.1387 143.275 41.12V46.02ZM151.333 47.098C150.661 47.098 150.068 46.9533 149.555 46.664C149.051 46.3747 148.659 45.964 148.379 45.432C148.108 44.8907 147.973 44.2653 147.973 43.556C147.973 42.8373 148.108 42.212 148.379 41.68C148.659 41.1387 149.051 40.7233 149.555 40.434C150.068 40.1447 150.661 40 151.333 40C152.005 40 152.593 40.1447 153.097 40.434C153.61 40.7233 154.002 41.1387 154.273 41.68C154.553 42.212 154.693 42.8373 154.693 43.556C154.693 44.2653 154.553 44.8907 154.273 45.432C154.002 45.964 153.61 46.3747 153.097 46.664C152.593 46.9533 152.005 47.098 151.333 47.098ZM151.333 45.978C151.958 45.978 152.434 45.7727 152.761 45.362C153.097 44.9513 153.265 44.3493 153.265 43.556C153.265 42.772 153.097 42.1747 152.761 41.764C152.425 41.344 151.949 41.134 151.333 41.134C150.717 41.134 150.241 41.344 149.905 41.764C149.569 42.1747 149.401 42.772 149.401 43.556C149.401 44.3493 149.564 44.9513 149.891 45.362C150.227 45.7727 150.707 45.978 151.333 45.978ZM159.935 40C160.523 40 161.046 40.1493 161.503 40.448C161.97 40.7467 162.329 41.1667 162.581 41.708C162.842 42.2493 162.973 42.8747 162.973 43.584C162.973 44.284 162.847 44.9 162.595 45.432C162.343 45.964 161.984 46.3747 161.517 46.664C161.06 46.9533 160.532 47.098 159.935 47.098C159.422 47.098 158.969 46.9907 158.577 46.776C158.185 46.552 157.886 46.2347 157.681 45.824V48.946C157.681 49.142 157.616 49.296 157.485 49.408C157.364 49.5293 157.2 49.59 156.995 49.59C156.78 49.59 156.603 49.5293 156.463 49.408C156.332 49.2867 156.267 49.1233 156.267 48.918V40.714C156.267 40.5087 156.332 40.3453 156.463 40.224C156.594 40.0933 156.766 40.028 156.981 40.028C157.186 40.028 157.354 40.0933 157.485 40.224C157.616 40.3453 157.681 40.5087 157.681 40.714V41.288C157.886 40.8773 158.185 40.56 158.577 40.336C158.969 40.112 159.422 40 159.935 40ZM159.599 45.978C160.215 45.978 160.691 45.7727 161.027 45.362C161.363 44.942 161.531 44.3493 161.531 43.584C161.531 42.8093 161.358 42.2073 161.013 41.778C160.677 41.3487 160.206 41.134 159.599 41.134C158.983 41.134 158.507 41.344 158.171 41.764C157.844 42.184 157.681 42.7813 157.681 43.556C157.681 44.3307 157.844 44.928 158.171 45.348C158.507 45.768 158.983 45.978 159.599 45.978ZM171.049 40.028C171.273 40.028 171.45 40.0887 171.581 40.21C171.711 40.3313 171.777 40.4993 171.777 40.714V46.426C171.777 46.6127 171.716 46.7667 171.595 46.888C171.473 47.0093 171.315 47.07 171.119 47.07C170.932 47.07 170.773 47.0093 170.643 46.888C170.521 46.7667 170.461 46.608 170.461 46.412L170.475 42.366L168.781 45.488C168.715 45.6093 168.627 45.7073 168.515 45.782C168.403 45.8473 168.281 45.88 168.151 45.88C168.011 45.88 167.885 45.8473 167.773 45.782C167.661 45.7073 167.572 45.6093 167.507 45.488L165.813 42.366L165.827 46.412C165.827 46.608 165.761 46.7667 165.631 46.888C165.509 47.0093 165.355 47.07 165.169 47.07C164.973 47.07 164.814 47.0093 164.693 46.888C164.571 46.7667 164.511 46.6127 164.511 46.426V40.756C164.511 40.5413 164.571 40.3687 164.693 40.238C164.823 40.098 164.991 40.028 165.197 40.028C165.383 40.028 165.542 40.0607 165.673 40.126C165.813 40.1913 165.929 40.322 166.023 40.518L168.151 44.522L170.223 40.588C170.335 40.3827 170.451 40.238 170.573 40.154C170.694 40.07 170.853 40.028 171.049 40.028ZM175.826 42.016C175.826 43.4627 175.663 44.578 175.336 45.362C175.019 46.1367 174.52 46.6967 173.838 47.042C173.754 47.0793 173.656 47.098 173.544 47.098C173.376 47.098 173.236 47.0467 173.124 46.944C173.012 46.832 172.956 46.7013 172.956 46.552C172.956 46.44 172.989 46.3327 173.054 46.23C173.12 46.118 173.208 46.0293 173.32 45.964C173.628 45.7867 173.866 45.5487 174.034 45.25C174.212 44.942 174.338 44.536 174.412 44.032C174.487 43.528 174.524 42.8653 174.524 42.044V40.896C174.524 40.672 174.585 40.4947 174.706 40.364C174.828 40.2333 174.996 40.168 175.21 40.168H178.906C179.13 40.168 179.308 40.2287 179.438 40.35C179.569 40.4713 179.634 40.6393 179.634 40.854V46.398C179.634 46.6033 179.569 46.7667 179.438 46.888C179.317 47.0093 179.149 47.07 178.934 47.07C178.72 47.07 178.547 47.0093 178.416 46.888C178.286 46.7667 178.22 46.6033 178.22 46.398V41.26H175.826V42.016ZM186.908 45.278C187.039 45.278 187.146 45.3293 187.23 45.432C187.314 45.5347 187.356 45.6653 187.356 45.824C187.356 46.0947 187.188 46.3233 186.852 46.51C186.525 46.6967 186.166 46.8413 185.774 46.944C185.391 47.0467 185.023 47.098 184.668 47.098C183.585 47.098 182.731 46.7853 182.106 46.16C181.481 45.5253 181.168 44.662 181.168 43.57C181.168 42.87 181.303 42.2493 181.574 41.708C181.854 41.1667 182.241 40.7467 182.736 40.448C183.24 40.1493 183.809 40 184.444 40C185.359 40 186.082 40.294 186.614 40.882C187.146 41.47 187.412 42.2633 187.412 43.262C187.412 43.6353 187.244 43.822 186.908 43.822H182.582C182.675 45.2687 183.371 45.992 184.668 45.992C185.013 45.992 185.312 45.9453 185.564 45.852C185.816 45.7587 186.082 45.6373 186.362 45.488C186.39 45.4693 186.465 45.432 186.586 45.376C186.717 45.3107 186.824 45.278 186.908 45.278ZM184.472 41.036C183.931 41.036 183.497 41.2087 183.17 41.554C182.843 41.8993 182.647 42.3847 182.582 43.01H186.194C186.166 42.3753 186.003 41.89 185.704 41.554C185.415 41.2087 185.004 41.036 184.472 41.036ZM189.656 47.07C189.442 47.07 189.269 47.0093 189.138 46.888C189.008 46.7667 188.942 46.6033 188.942 46.398V40.7C188.942 40.4947 189.008 40.3313 189.138 40.21C189.269 40.0887 189.442 40.028 189.656 40.028C189.871 40.028 190.039 40.0887 190.16 40.21C190.291 40.3313 190.356 40.4947 190.356 40.7V42.94H193.716V40.7C193.716 40.4947 193.782 40.3313 193.912 40.21C194.043 40.0887 194.216 40.028 194.43 40.028C194.645 40.028 194.813 40.0887 194.934 40.21C195.065 40.3313 195.13 40.4947 195.13 40.7L195.144 46.356C195.144 46.5707 195.079 46.7433 194.948 46.874C194.818 47.0047 194.645 47.07 194.43 47.07C194.216 47.07 194.043 47.0047 193.912 46.874C193.782 46.7433 193.716 46.5707 193.716 46.356V44.06H190.356V46.398C190.356 46.6033 190.291 46.7667 190.16 46.888C190.039 47.0093 189.871 47.07 189.656 47.07ZM201.74 40.532C201.87 40.3453 201.996 40.2147 202.118 40.14C202.239 40.0653 202.402 40.028 202.608 40.028C202.832 40.028 203.009 40.0933 203.14 40.224C203.27 40.3453 203.336 40.5133 203.336 40.728V46.384C203.336 46.5893 203.275 46.7573 203.154 46.888C203.032 47.0093 202.869 47.07 202.664 47.07C202.468 47.07 202.304 47.0093 202.174 46.888C202.052 46.7573 201.992 46.5893 201.992 46.384V41.932L198.632 46.594C198.501 46.7807 198.37 46.9067 198.24 46.972C198.118 47.0373 197.964 47.07 197.778 47.07C197.563 47.07 197.386 47.0093 197.246 46.888C197.115 46.7573 197.05 46.5893 197.05 46.384V40.714C197.05 40.518 197.11 40.3547 197.232 40.224C197.362 40.0933 197.53 40.028 197.736 40.028C197.932 40.028 198.09 40.0933 198.212 40.224C198.342 40.3547 198.408 40.518 198.408 40.714V45.124L201.74 40.532ZM210.629 45.278C210.759 45.278 210.867 45.3293 210.951 45.432C211.035 45.5347 211.077 45.6653 211.077 45.824C211.077 46.0947 210.909 46.3233 210.573 46.51C210.246 46.6967 209.887 46.8413 209.495 46.944C209.112 47.0467 208.743 47.098 208.389 47.098C207.306 47.098 206.452 46.7853 205.827 46.16C205.201 45.5253 204.889 44.662 204.889 43.57C204.889 42.87 205.024 42.2493 205.295 41.708C205.575 41.1667 205.962 40.7467 206.457 40.448C206.961 40.1493 207.53 40 208.165 40C209.079 40 209.803 40.294 210.335 40.882C210.867 41.47 211.133 42.2633 211.133 43.262C211.133 43.6353 210.965 43.822 210.629 43.822H206.303C206.396 45.2687 207.091 45.992 208.389 45.992C208.734 45.992 209.033 45.9453 209.285 45.852C209.537 45.7587 209.803 45.6373 210.083 45.488C210.111 45.4693 210.185 45.432 210.307 45.376C210.437 45.3107 210.545 45.278 210.629 45.278ZM208.193 41.036C207.651 41.036 207.217 41.2087 206.891 41.554C206.564 41.8993 206.368 42.3847 206.303 43.01H209.915C209.887 42.3753 209.723 41.89 209.425 41.554C209.135 41.2087 208.725 41.036 208.193 41.036ZM218.594 47.098C217.642 47.098 216.83 46.8973 216.158 46.496C215.916 46.3653 215.794 46.1833 215.794 45.95C215.794 45.81 215.846 45.6933 215.948 45.6C216.051 45.4973 216.182 45.446 216.34 45.446C216.452 45.446 216.564 45.474 216.676 45.53C216.966 45.6887 217.25 45.8053 217.53 45.88C217.82 45.9547 218.137 45.992 218.482 45.992C218.94 45.992 219.336 45.9033 219.672 45.726C220.008 45.5487 220.176 45.278 220.176 44.914C220.176 44.3167 219.752 44.018 218.902 44.018H217.908C217.75 44.018 217.619 43.9713 217.516 43.878C217.423 43.7753 217.376 43.6447 217.376 43.486C217.376 43.3367 217.428 43.2153 217.53 43.122C217.633 43.0193 217.759 42.968 217.908 42.968H218.818C219.21 42.968 219.509 42.884 219.714 42.716C219.929 42.5387 220.036 42.31 220.036 42.03C220.036 41.7407 219.915 41.5213 219.672 41.372C219.43 41.2133 219.084 41.134 218.636 41.134C218.272 41.134 217.95 41.1713 217.67 41.246C217.4 41.3207 217.124 41.4327 216.844 41.582C216.732 41.6287 216.63 41.652 216.536 41.652C216.387 41.652 216.256 41.6007 216.144 41.498C216.042 41.3953 215.99 41.2787 215.99 41.148C215.99 40.9147 216.116 40.7373 216.368 40.616C217.106 40.2053 217.946 40 218.888 40C219.756 40 220.41 40.168 220.848 40.504C221.296 40.84 221.52 41.288 221.52 41.848C221.52 42.1933 221.413 42.5107 221.198 42.8C220.984 43.0893 220.685 43.2993 220.302 43.43C221.198 43.626 221.646 44.1533 221.646 45.012C221.646 45.432 221.511 45.8007 221.24 46.118C220.97 46.4353 220.601 46.678 220.134 46.846C219.668 47.014 219.154 47.098 218.594 47.098ZM226.088 40C226.994 40 227.666 40.2287 228.104 40.686C228.552 41.1433 228.776 41.8387 228.776 42.772V46.398C228.776 46.6127 228.716 46.7807 228.594 46.902C228.473 47.014 228.305 47.07 228.09 47.07C227.885 47.07 227.722 47.0093 227.6 46.888C227.479 46.7667 227.418 46.6033 227.418 46.398V45.88C227.241 46.272 226.975 46.5753 226.62 46.79C226.275 46.9953 225.869 47.098 225.402 47.098C224.954 47.098 224.544 47.0093 224.17 46.832C223.806 46.6453 223.517 46.3933 223.302 46.076C223.088 45.7587 222.98 45.3993 222.98 44.998C222.971 44.494 223.097 44.102 223.358 43.822C223.62 43.5327 224.044 43.3273 224.632 43.206C225.22 43.0753 226.037 43.01 227.082 43.01H227.404V42.604C227.404 42.0813 227.297 41.7033 227.082 41.47C226.868 41.2367 226.522 41.12 226.046 41.12C225.72 41.12 225.412 41.162 225.122 41.246C224.833 41.33 224.516 41.4513 224.17 41.61C223.918 41.75 223.741 41.82 223.638 41.82C223.498 41.82 223.382 41.7687 223.288 41.666C223.204 41.5633 223.162 41.4327 223.162 41.274C223.162 41.134 223.2 41.0127 223.274 40.91C223.358 40.798 223.489 40.6907 223.666 40.588C223.993 40.4107 224.376 40.2707 224.814 40.168C225.253 40.056 225.678 40 226.088 40ZM225.654 46.048C226.168 46.048 226.588 45.8753 226.914 45.53C227.241 45.1753 227.404 44.7227 227.404 44.172V43.808H227.152C226.424 43.808 225.864 43.8407 225.472 43.906C225.08 43.9713 224.8 44.0833 224.632 44.242C224.464 44.3913 224.38 44.6107 224.38 44.9C224.38 45.236 224.502 45.5113 224.744 45.726C224.987 45.9407 225.29 46.048 225.654 46.048ZM234.28 43.276C234.607 43.388 234.868 43.5467 235.064 43.752C235.27 43.9573 235.512 44.3027 235.792 44.788L236.548 46.062C236.614 46.1833 236.646 46.3 236.646 46.412C236.646 46.5987 236.576 46.7573 236.436 46.888C236.296 47.0093 236.133 47.07 235.946 47.07C235.704 47.07 235.508 46.9487 235.358 46.706L234.378 45.026C234.154 44.6527 233.94 44.4007 233.734 44.27C233.538 44.13 233.249 44.06 232.866 44.06H232.194V46.398C232.194 46.6033 232.129 46.7667 231.998 46.888C231.868 47.0093 231.695 47.07 231.48 47.07C231.266 47.07 231.093 47.0093 230.962 46.888C230.841 46.7667 230.78 46.6033 230.78 46.398V40.714C230.78 40.4993 230.841 40.3313 230.962 40.21C231.093 40.0887 231.266 40.028 231.48 40.028C231.695 40.028 231.868 40.0933 231.998 40.224C232.129 40.3453 232.194 40.5087 232.194 40.714V42.982H232.992L235.176 40.322C235.335 40.1353 235.512 40.042 235.708 40.042C235.867 40.042 236.002 40.098 236.114 40.21C236.236 40.322 236.296 40.4573 236.296 40.616C236.296 40.784 236.236 40.9427 236.114 41.092L234.28 43.276ZM240.95 40C241.855 40 242.527 40.2287 242.966 40.686C243.414 41.1433 243.638 41.8387 243.638 42.772V46.398C243.638 46.6127 243.577 46.7807 243.456 46.902C243.334 47.014 243.166 47.07 242.952 47.07C242.746 47.07 242.583 47.0093 242.462 46.888C242.34 46.7667 242.28 46.6033 242.28 46.398V45.88C242.102 46.272 241.836 46.5753 241.482 46.79C241.136 46.9953 240.73 47.098 240.264 47.098C239.816 47.098 239.405 47.0093 239.032 46.832C238.668 46.6453 238.378 46.3933 238.164 46.076C237.949 45.7587 237.842 45.3993 237.842 44.998C237.832 44.494 237.958 44.102 238.22 43.822C238.481 43.5327 238.906 43.3273 239.494 43.206C240.082 43.0753 240.898 43.01 241.944 43.01H242.266V42.604C242.266 42.0813 242.158 41.7033 241.944 41.47C241.729 41.2367 241.384 41.12 240.908 41.12C240.581 41.12 240.273 41.162 239.984 41.246C239.694 41.33 239.377 41.4513 239.032 41.61C238.78 41.75 238.602 41.82 238.5 41.82C238.36 41.82 238.243 41.7687 238.15 41.666C238.066 41.5633 238.024 41.4327 238.024 41.274C238.024 41.134 238.061 41.0127 238.136 40.91C238.22 40.798 238.35 40.6907 238.528 40.588C238.854 40.4107 239.237 40.2707 239.676 40.168C240.114 40.056 240.539 40 240.95 40ZM240.516 46.048C241.029 46.048 241.449 45.8753 241.776 45.53C242.102 45.1753 242.266 44.7227 242.266 44.172V43.808H242.014C241.286 43.808 240.726 43.8407 240.334 43.906C239.942 43.9713 239.662 44.0833 239.494 44.242C239.326 44.3913 239.242 44.6107 239.242 44.9C239.242 45.236 239.363 45.5113 239.606 45.726C239.848 45.9407 240.152 46.048 240.516 46.048ZM247.784 47.098C246.832 47.098 246.02 46.8973 245.348 46.496C245.105 46.3653 244.984 46.1833 244.984 45.95C244.984 45.81 245.035 45.6933 245.138 45.6C245.24 45.4973 245.371 45.446 245.53 45.446C245.642 45.446 245.754 45.474 245.866 45.53C246.155 45.6887 246.44 45.8053 246.72 45.88C247.009 45.9547 247.326 45.992 247.672 45.992C248.129 45.992 248.526 45.9033 248.862 45.726C249.198 45.5487 249.366 45.278 249.366 44.914C249.366 44.3167 248.941 44.018 248.092 44.018H247.098C246.939 44.018 246.808 43.9713 246.706 43.878C246.612 43.7753 246.566 43.6447 246.566 43.486C246.566 43.3367 246.617 43.2153 246.72 43.122C246.822 43.0193 246.948 42.968 247.098 42.968H248.008C248.4 42.968 248.698 42.884 248.904 42.716C249.118 42.5387 249.226 42.31 249.226 42.03C249.226 41.7407 249.104 41.5213 248.862 41.372C248.619 41.2133 248.274 41.134 247.826 41.134C247.462 41.134 247.14 41.1713 246.86 41.246C246.589 41.3207 246.314 41.4327 246.034 41.582C245.922 41.6287 245.819 41.652 245.726 41.652C245.576 41.652 245.446 41.6007 245.334 41.498C245.231 41.3953 245.18 41.2787 245.18 41.148C245.18 40.9147 245.306 40.7373 245.558 40.616C246.295 40.2053 247.135 40 248.078 40C248.946 40 249.599 40.168 250.038 40.504C250.486 40.84 250.71 41.288 250.71 41.848C250.71 42.1933 250.602 42.5107 250.388 42.8C250.173 43.0893 249.874 43.2993 249.492 43.43C250.388 43.626 250.836 44.1533 250.836 45.012C250.836 45.432 250.7 45.8007 250.43 46.118C250.159 46.4353 249.79 46.678 249.324 46.846C248.857 47.014 248.344 47.098 247.784 47.098ZM255.278 40C256.183 40 256.855 40.2287 257.294 40.686C257.742 41.1433 257.966 41.8387 257.966 42.772V46.398C257.966 46.6127 257.905 46.7807 257.784 46.902C257.662 47.014 257.494 47.07 257.28 47.07C257.074 47.07 256.911 47.0093 256.79 46.888C256.668 46.7667 256.608 46.6033 256.608 46.398V45.88C256.43 46.272 256.164 46.5753 255.81 46.79C255.464 46.9953 255.058 47.098 254.592 47.098C254.144 47.098 253.733 47.0093 253.36 46.832C252.996 46.6453 252.706 46.3933 252.492 46.076C252.277 45.7587 252.17 45.3993 252.17 44.998C252.16 44.494 252.286 44.102 252.548 43.822C252.809 43.5327 253.234 43.3273 253.822 43.206C254.41 43.0753 255.226 43.01 256.272 43.01H256.594V42.604C256.594 42.0813 256.486 41.7033 256.272 41.47C256.057 41.2367 255.712 41.12 255.236 41.12C254.909 41.12 254.601 41.162 254.312 41.246C254.022 41.33 253.705 41.4513 253.36 41.61C253.108 41.75 252.93 41.82 252.828 41.82C252.688 41.82 252.571 41.7687 252.478 41.666C252.394 41.5633 252.352 41.4327 252.352 41.274C252.352 41.134 252.389 41.0127 252.464 40.91C252.548 40.798 252.678 40.6907 252.856 40.588C253.182 40.4107 253.565 40.2707 254.004 40.168C254.442 40.056 254.867 40 255.278 40ZM254.844 46.048C255.357 46.048 255.777 45.8753 256.104 45.53C256.43 45.1753 256.594 44.7227 256.594 44.172V43.808H256.342C255.614 43.808 255.054 43.8407 254.662 43.906C254.27 43.9713 253.99 44.0833 253.822 44.242C253.654 44.3913 253.57 44.6107 253.57 44.9C253.57 45.236 253.691 45.5113 253.934 45.726C254.176 45.9407 254.48 46.048 254.844 46.048Z" fill="black"/>
<circle cx="193" cy="16" r="15.5" fill="white" stroke="#424242"/>
<path d="M196.268 19.544C196.828 19.544 197.108 19.782 197.108 20.258C197.108 20.7527 196.828 21 196.268 21H190.948C190.705 21 190.514 20.93 190.374 20.79C190.234 20.6407 190.164 20.4587 190.164 20.244C190.164 19.964 190.271 19.712 190.486 19.488L193.678 16.058C194.07 15.6287 194.355 15.2367 194.532 14.882C194.719 14.518 194.812 14.1587 194.812 13.804C194.812 13.3653 194.686 13.0293 194.434 12.796C194.182 12.5627 193.823 12.446 193.356 12.446C192.973 12.446 192.6 12.5207 192.236 12.67C191.881 12.81 191.522 13.006 191.158 13.258C191.065 13.3233 190.971 13.3793 190.878 13.426C190.785 13.4633 190.691 13.482 190.598 13.482C190.439 13.482 190.299 13.4073 190.178 13.258C190.066 13.1087 190.01 12.9313 190.01 12.726C190.01 12.586 190.033 12.4647 190.08 12.362C190.136 12.2593 190.22 12.1613 190.332 12.068C190.743 11.7413 191.223 11.4847 191.774 11.298C192.325 11.102 192.875 11.004 193.426 11.004C194.387 11.004 195.153 11.2467 195.722 11.732C196.301 12.2173 196.59 12.8707 196.59 13.692C196.59 14.2613 196.469 14.798 196.226 15.302C195.983 15.7967 195.573 16.352 194.994 16.968L192.572 19.544H196.268Z" fill="black"/>
<path d="M316.284 47.112C315.631 47.112 315.015 47.0327 314.436 46.874C313.867 46.706 313.367 46.468 312.938 46.16C312.705 46.0107 312.588 45.8193 312.588 45.586C312.588 45.418 312.639 45.2827 312.742 45.18C312.845 45.068 312.98 45.012 313.148 45.012C313.269 45.012 313.395 45.0493 313.526 45.124C313.937 45.404 314.352 45.6047 314.772 45.726C315.192 45.8473 315.649 45.908 316.144 45.908C316.965 45.908 317.609 45.7633 318.076 45.474C318.543 45.1753 318.776 44.7507 318.776 44.2C318.776 43.108 318.015 42.562 316.494 42.562H314.996C314.791 42.562 314.627 42.506 314.506 42.394C314.394 42.282 314.338 42.1467 314.338 41.988C314.338 41.8293 314.394 41.694 314.506 41.582C314.627 41.4607 314.791 41.4 314.996 41.4H316.256C317.003 41.4 317.577 41.26 317.978 40.98C318.389 40.6907 318.594 40.28 318.594 39.748C318.594 39.2533 318.403 38.8753 318.02 38.614C317.647 38.3527 317.129 38.222 316.466 38.222C315.953 38.222 315.477 38.292 315.038 38.432C314.609 38.572 314.189 38.768 313.778 39.02C313.657 39.076 313.54 39.104 313.428 39.104C313.251 39.104 313.106 39.0527 312.994 38.95C312.891 38.838 312.84 38.698 312.84 38.53C312.84 38.418 312.868 38.3107 312.924 38.208C312.989 38.1053 313.083 38.0213 313.204 37.956C313.633 37.6667 314.142 37.438 314.73 37.27C315.327 37.102 315.971 37.018 316.662 37.018C317.754 37.018 318.594 37.2513 319.182 37.718C319.77 38.1753 320.064 38.81 320.064 39.622C320.064 40.1727 319.91 40.6487 319.602 41.05C319.294 41.442 318.846 41.7313 318.258 41.918C319.583 42.198 320.246 42.9633 320.246 44.214C320.246 44.7927 320.078 45.3013 319.742 45.74C319.415 46.1787 318.953 46.5193 318.356 46.762C317.759 46.9953 317.068 47.112 316.284 47.112ZM324.819 40C325.724 40 326.396 40.2287 326.835 40.686C327.283 41.1433 327.507 41.8387 327.507 42.772V46.398C327.507 46.6127 327.446 46.7807 327.325 46.902C327.203 47.014 327.035 47.07 326.821 47.07C326.615 47.07 326.452 47.0093 326.331 46.888C326.209 46.7667 326.149 46.6033 326.149 46.398V45.88C325.971 46.272 325.705 46.5753 325.351 46.79C325.005 46.9953 324.599 47.098 324.133 47.098C323.685 47.098 323.274 47.0093 322.901 46.832C322.537 46.6453 322.247 46.3933 322.033 46.076C321.818 45.7587 321.711 45.3993 321.711 44.998C321.701 44.494 321.827 44.102 322.089 43.822C322.35 43.5327 322.775 43.3273 323.363 43.206C323.951 43.0753 324.767 43.01 325.813 43.01H326.135V42.604C326.135 42.0813 326.027 41.7033 325.813 41.47C325.598 41.2367 325.253 41.12 324.777 41.12C324.45 41.12 324.142 41.162 323.853 41.246C323.563 41.33 323.246 41.4513 322.901 41.61C322.649 41.75 322.471 41.82 322.369 41.82C322.229 41.82 322.112 41.7687 322.019 41.666C321.935 41.5633 321.893 41.4327 321.893 41.274C321.893 41.134 321.93 41.0127 322.005 40.91C322.089 40.798 322.219 40.6907 322.397 40.588C322.723 40.4107 323.106 40.2707 323.545 40.168C323.983 40.056 324.408 40 324.819 40ZM324.385 46.048C324.898 46.048 325.318 45.8753 325.645 45.53C325.971 45.1753 326.135 44.7227 326.135 44.172V43.808H325.883C325.155 43.808 324.595 43.8407 324.203 43.906C323.811 43.9713 323.531 44.0833 323.363 44.242C323.195 44.3913 323.111 44.6107 323.111 44.9C323.111 45.236 323.232 45.5113 323.475 45.726C323.717 45.9407 324.021 46.048 324.385 46.048ZM333.011 43.276C333.338 43.388 333.599 43.5467 333.795 43.752C334 43.9573 334.243 44.3027 334.523 44.788L335.279 46.062C335.344 46.1833 335.377 46.3 335.377 46.412C335.377 46.5987 335.307 46.7573 335.167 46.888C335.027 47.0093 334.864 47.07 334.677 47.07C334.434 47.07 334.238 46.9487 334.089 46.706L333.109 45.026C332.885 44.6527 332.67 44.4007 332.465 44.27C332.269 44.13 331.98 44.06 331.597 44.06H330.925V46.398C330.925 46.6033 330.86 46.7667 330.729 46.888C330.598 47.0093 330.426 47.07 330.211 47.07C329.996 47.07 329.824 47.0093 329.693 46.888C329.572 46.7667 329.511 46.6033 329.511 46.398V40.714C329.511 40.4993 329.572 40.3313 329.693 40.21C329.824 40.0887 329.996 40.028 330.211 40.028C330.426 40.028 330.598 40.0933 330.729 40.224C330.86 40.3453 330.925 40.5087 330.925 40.714V42.982H331.723L333.907 40.322C334.066 40.1353 334.243 40.042 334.439 40.042C334.598 40.042 334.733 40.098 334.845 40.21C334.966 40.322 335.027 40.4573 335.027 40.616C335.027 40.784 334.966 40.9427 334.845 41.092L333.011 43.276ZM339.68 40C340.585 40 341.257 40.2287 341.696 40.686C342.144 41.1433 342.368 41.8387 342.368 42.772V46.398C342.368 46.6127 342.307 46.7807 342.186 46.902C342.065 47.014 341.897 47.07 341.682 47.07C341.477 47.07 341.313 47.0093 341.192 46.888C341.071 46.7667 341.01 46.6033 341.01 46.398V45.88C340.833 46.272 340.567 46.5753 340.212 46.79C339.867 46.9953 339.461 47.098 338.994 47.098C338.546 47.098 338.135 47.0093 337.762 46.832C337.398 46.6453 337.109 46.3933 336.894 46.076C336.679 45.7587 336.572 45.3993 336.572 44.998C336.563 44.494 336.689 44.102 336.95 43.822C337.211 43.5327 337.636 43.3273 338.224 43.206C338.812 43.0753 339.629 43.01 340.674 43.01H340.996V42.604C340.996 42.0813 340.889 41.7033 340.674 41.47C340.459 41.2367 340.114 41.12 339.638 41.12C339.311 41.12 339.003 41.162 338.714 41.246C338.425 41.33 338.107 41.4513 337.762 41.61C337.51 41.75 337.333 41.82 337.23 41.82C337.09 41.82 336.973 41.7687 336.88 41.666C336.796 41.5633 336.754 41.4327 336.754 41.274C336.754 41.134 336.791 41.0127 336.866 40.91C336.95 40.798 337.081 40.6907 337.258 40.588C337.585 40.4107 337.967 40.2707 338.406 40.168C338.845 40.056 339.269 40 339.68 40ZM339.246 46.048C339.759 46.048 340.179 45.8753 340.506 45.53C340.833 45.1753 340.996 44.7227 340.996 44.172V43.808H340.744C340.016 43.808 339.456 43.8407 339.064 43.906C338.672 43.9713 338.392 44.0833 338.224 44.242C338.056 44.3913 337.972 44.6107 337.972 44.9C337.972 45.236 338.093 45.5113 338.336 45.726C338.579 45.9407 338.882 46.048 339.246 46.048ZM346.514 47.098C345.562 47.098 344.75 46.8973 344.078 46.496C343.836 46.3653 343.714 46.1833 343.714 45.95C343.714 45.81 343.766 45.6933 343.868 45.6C343.971 45.4973 344.102 45.446 344.26 45.446C344.372 45.446 344.484 45.474 344.596 45.53C344.886 45.6887 345.17 45.8053 345.45 45.88C345.74 45.9547 346.057 45.992 346.402 45.992C346.86 45.992 347.256 45.9033 347.592 45.726C347.928 45.5487 348.096 45.278 348.096 44.914C348.096 44.3167 347.672 44.018 346.822 44.018H345.828C345.67 44.018 345.539 43.9713 345.436 43.878C345.343 43.7753 345.296 43.6447 345.296 43.486C345.296 43.3367 345.348 43.2153 345.45 43.122C345.553 43.0193 345.679 42.968 345.828 42.968H346.738C347.13 42.968 347.429 42.884 347.634 42.716C347.849 42.5387 347.956 42.31 347.956 42.03C347.956 41.7407 347.835 41.5213 347.592 41.372C347.35 41.2133 347.004 41.134 346.556 41.134C346.192 41.134 345.87 41.1713 345.59 41.246C345.32 41.3207 345.044 41.4327 344.764 41.582C344.652 41.6287 344.55 41.652 344.456 41.652C344.307 41.652 344.176 41.6007 344.064 41.498C343.962 41.3953 343.91 41.2787 343.91 41.148C343.91 40.9147 344.036 40.7373 344.288 40.616C345.026 40.2053 345.866 40 346.808 40C347.676 40 348.33 40.168 348.768 40.504C349.216 40.84 349.44 41.288 349.44 41.848C349.44 42.1933 349.333 42.5107 349.118 42.8C348.904 43.0893 348.605 43.2993 348.222 43.43C349.118 43.626 349.566 44.1533 349.566 45.012C349.566 45.432 349.431 45.8007 349.16 46.118C348.89 46.4353 348.521 46.678 348.054 46.846C347.588 47.014 347.074 47.098 346.514 47.098ZM355.516 47.07C355.301 47.07 355.128 47.0093 354.998 46.888C354.867 46.7667 354.802 46.6033 354.802 46.398V40.896C354.802 40.672 354.862 40.4947 354.984 40.364C355.105 40.2333 355.273 40.168 355.488 40.168H360.178C360.402 40.168 360.579 40.2287 360.71 40.35C360.84 40.4713 360.906 40.6393 360.906 40.854V46.398C360.906 46.6033 360.84 46.7667 360.71 46.888C360.579 47.0093 360.406 47.07 360.192 47.07C359.977 47.07 359.804 47.0093 359.674 46.888C359.552 46.7667 359.492 46.6033 359.492 46.398V41.26H356.216V46.398C356.216 46.6033 356.15 46.7667 356.02 46.888C355.898 47.0093 355.73 47.07 355.516 47.07ZM366.509 40C367.097 40 367.62 40.1493 368.077 40.448C368.544 40.7467 368.903 41.1667 369.155 41.708C369.417 42.2493 369.547 42.8747 369.547 43.584C369.547 44.284 369.421 44.9 369.169 45.432C368.917 45.964 368.558 46.3747 368.091 46.664C367.634 46.9533 367.107 47.098 366.509 47.098C365.996 47.098 365.543 46.9907 365.151 46.776C364.759 46.552 364.461 46.2347 364.255 45.824V48.946C364.255 49.142 364.19 49.296 364.059 49.408C363.938 49.5293 363.775 49.59 363.569 49.59C363.355 49.59 363.177 49.5293 363.037 49.408C362.907 49.2867 362.841 49.1233 362.841 48.918V40.714C362.841 40.5087 362.907 40.3453 363.037 40.224C363.168 40.0933 363.341 40.028 363.555 40.028C363.761 40.028 363.929 40.0933 364.059 40.224C364.19 40.3453 364.255 40.5087 364.255 40.714V41.288C364.461 40.8773 364.759 40.56 365.151 40.336C365.543 40.112 365.996 40 366.509 40ZM366.173 45.978C366.789 45.978 367.265 45.7727 367.601 45.362C367.937 44.942 368.105 44.3493 368.105 43.584C368.105 42.8093 367.933 42.2073 367.587 41.778C367.251 41.3487 366.78 41.134 366.173 41.134C365.557 41.134 365.081 41.344 364.745 41.764C364.419 42.184 364.255 42.7813 364.255 43.556C364.255 44.3307 364.419 44.928 364.745 45.348C365.081 45.768 365.557 45.978 366.173 45.978ZM375.775 40.532C375.905 40.3453 376.031 40.2147 376.153 40.14C376.274 40.0653 376.437 40.028 376.643 40.028C376.867 40.028 377.044 40.0933 377.175 40.224C377.305 40.3453 377.371 40.5133 377.371 40.728V46.384C377.371 46.5893 377.31 46.7573 377.189 46.888C377.067 47.0093 376.904 47.07 376.699 47.07C376.503 47.07 376.339 47.0093 376.209 46.888C376.087 46.7573 376.027 46.5893 376.027 46.384V41.932L372.667 46.594C372.536 46.7807 372.405 46.9067 372.275 46.972C372.153 47.0373 371.999 47.07 371.813 47.07C371.598 47.07 371.421 47.0093 371.281 46.888C371.15 46.7573 371.085 46.5893 371.085 46.384V40.714C371.085 40.518 371.145 40.3547 371.267 40.224C371.397 40.0933 371.565 40.028 371.771 40.028C371.967 40.028 372.125 40.0933 372.247 40.224C372.377 40.3547 372.443 40.518 372.443 40.714V45.124L375.775 40.532ZM380.002 47.07C379.787 47.07 379.615 47.0093 379.484 46.888C379.353 46.7667 379.288 46.6033 379.288 46.398V40.7C379.288 40.4947 379.353 40.3313 379.484 40.21C379.615 40.0887 379.787 40.028 380.002 40.028C380.217 40.028 380.385 40.0887 380.506 40.21C380.637 40.3313 380.702 40.4947 380.702 40.7V42.94H384.062V40.7C384.062 40.4947 384.127 40.3313 384.258 40.21C384.389 40.0887 384.561 40.028 384.776 40.028C384.991 40.028 385.159 40.0887 385.28 40.21C385.411 40.3313 385.476 40.4947 385.476 40.7L385.49 46.356C385.49 46.5707 385.425 46.7433 385.294 46.874C385.163 47.0047 384.991 47.07 384.776 47.07C384.561 47.07 384.389 47.0047 384.258 46.874C384.127 46.7433 384.062 46.5707 384.062 46.356V44.06H380.702V46.398C380.702 46.6033 380.637 46.7667 380.506 46.888C380.385 47.0093 380.217 47.07 380.002 47.07ZM392.239 47.07C392.025 47.07 391.852 47.0093 391.721 46.888C391.6 46.7667 391.539 46.6033 391.539 46.398V44.55H390.839C390.186 44.55 389.668 44.844 389.285 45.432L388.361 46.804C388.203 47.028 388.002 47.14 387.759 47.14C387.582 47.14 387.423 47.0793 387.283 46.958C387.153 46.8367 387.087 46.692 387.087 46.524C387.087 46.3933 387.129 46.258 387.213 46.118L387.675 45.39C387.881 45.0633 388.109 44.7927 388.361 44.578C388.613 44.354 388.87 44.2093 389.131 44.144C388.525 44.032 388.077 43.808 387.787 43.472C387.507 43.136 387.367 42.7347 387.367 42.268C387.367 41.596 387.582 41.078 388.011 40.714C388.441 40.35 389.024 40.168 389.761 40.168H392.225C392.449 40.168 392.622 40.2287 392.743 40.35C392.874 40.4713 392.939 40.6393 392.939 40.854V46.398C392.939 46.6033 392.874 46.7667 392.743 46.888C392.622 47.0093 392.454 47.07 392.239 47.07ZM391.539 41.19H390.125C389.183 41.19 388.711 41.582 388.711 42.366C388.711 42.786 388.847 43.0893 389.117 43.276C389.388 43.4533 389.729 43.542 390.139 43.542H391.539V41.19ZM397.129 47.07C396.914 47.07 396.741 47.0093 396.611 46.888C396.48 46.7667 396.415 46.6033 396.415 46.398V41.26H394.595C394.427 41.26 394.291 41.2087 394.189 41.106C394.086 41.0033 394.035 40.8727 394.035 40.714C394.035 40.5553 394.086 40.4247 394.189 40.322C394.291 40.2193 394.427 40.168 394.595 40.168H399.649C399.826 40.168 399.966 40.2193 400.069 40.322C400.171 40.4247 400.223 40.5553 400.223 40.714C400.223 40.8727 400.171 41.0033 400.069 41.106C399.966 41.2087 399.826 41.26 399.649 41.26H397.829V46.398C397.829 46.6033 397.763 46.7667 397.633 46.888C397.511 47.0093 397.343 47.07 397.129 47.07Z" fill="#AEADAE"/>
<circle cx="357" cy="16" r="15.5" fill="white" stroke="#D7D7D7"/>
<path d="M359.015 15.932C359.603 16.0813 360.051 16.366 360.359 16.786C360.676 17.1967 360.835 17.71 360.835 18.326C360.835 19.1753 360.522 19.852 359.897 20.356C359.271 20.86 358.427 21.112 357.363 21.112C356.756 21.112 356.173 21.0187 355.613 20.832C355.053 20.6453 354.577 20.384 354.185 20.048C353.97 19.8613 353.863 19.642 353.863 19.39C353.863 19.1847 353.919 19.012 354.031 18.872C354.152 18.7227 354.292 18.648 354.451 18.648C354.544 18.648 354.628 18.6667 354.703 18.704C354.777 18.732 354.88 18.7833 355.011 18.858C355.403 19.1193 355.776 19.32 356.131 19.46C356.485 19.6 356.873 19.67 357.293 19.67C357.909 19.67 358.366 19.5487 358.665 19.306C358.963 19.054 359.113 18.676 359.113 18.172C359.113 17.6773 358.954 17.3133 358.637 17.08C358.329 16.8373 357.848 16.716 357.195 16.716H356.397C356.182 16.716 356.014 16.646 355.893 16.506C355.781 16.3567 355.725 16.1887 355.725 16.002C355.725 15.806 355.781 15.638 355.893 15.498C356.014 15.358 356.182 15.288 356.397 15.288H356.957C358.235 15.288 358.875 14.8073 358.875 13.846C358.875 13.398 358.739 13.0527 358.469 12.81C358.198 12.5673 357.825 12.446 357.349 12.446C356.667 12.446 355.939 12.7167 355.165 13.258C355.034 13.3327 354.931 13.3887 354.857 13.426C354.782 13.454 354.698 13.468 354.605 13.468C354.446 13.468 354.306 13.398 354.185 13.258C354.073 13.1087 354.017 12.9313 354.017 12.726C354.017 12.586 354.04 12.4693 354.087 12.376C354.143 12.2733 354.227 12.1707 354.339 12.068C354.731 11.7413 355.197 11.4847 355.739 11.298C356.289 11.102 356.849 11.004 357.419 11.004C358.389 11.004 359.159 11.242 359.729 11.718C360.307 12.194 360.597 12.8287 360.597 13.622C360.587 14.1633 360.443 14.6393 360.163 15.05C359.892 15.4513 359.509 15.7453 359.015 15.932Z" fill="#AEADAE"/>
<line x1="53" y1="16.5" x2="167" y2="16.5" stroke="black"/>
<line x1="217" y1="16.5" x2="331" y2="16.5" stroke="#AEADAE" stroke-dasharray="2 6"/>
</svg>
