<svg width="403" height="52" viewBox="0 0 403 52" fill="none" xmlns="http://www.w3.org/2000/svg">
<path d="M1.876 47.098C1.39067 47.098 1.148 46.8507 1.148 46.356V37.76C1.148 37.2747 1.39067 37.032 1.876 37.032C2.36133 37.032 2.604 37.2747 2.604 37.76V41.428H4.186L6.79 37.41C6.92067 37.2047 7.07467 37.0833 7.252 37.046C7.43867 37.0087 7.60667 37.0367 7.756 37.13C7.91467 37.214 8.01733 37.34 8.064 37.508C8.12 37.676 8.08267 37.8627 7.952 38.068L5.558 41.666C5.95 41.8153 6.29533 42.0487 6.594 42.366C6.89267 42.674 7.15867 43.0613 7.392 43.528L8.638 46.09C8.75933 46.3233 8.778 46.524 8.694 46.692C8.61933 46.86 8.49333 46.9767 8.316 47.042C8.148 47.1073 7.97067 47.1073 7.784 47.042C7.59733 46.986 7.45267 46.8507 7.35 46.636L6.174 44.13C5.922 43.598 5.628 43.22 5.292 42.996C4.956 42.7627 4.54067 42.646 4.046 42.646H2.604V46.356C2.604 46.8507 2.36133 47.098 1.876 47.098ZM13.1378 47.126C12.4471 47.126 11.8498 46.9813 11.3458 46.692C10.8418 46.4027 10.4498 45.9967 10.1698 45.474C9.89913 44.942 9.7638 44.312 9.7638 43.584C9.7638 42.856 9.89913 42.2307 10.1698 41.708C10.4498 41.176 10.8418 40.7653 11.3458 40.476C11.8498 40.1867 12.4471 40.042 13.1378 40.042C13.8098 40.042 14.3978 40.1867 14.9018 40.476C15.4058 40.7653 15.7978 41.176 16.0778 41.708C16.3578 42.2307 16.4978 42.856 16.4978 43.584C16.4978 44.312 16.3578 44.942 16.0778 45.474C15.7978 45.9967 15.4058 46.4027 14.9018 46.692C14.3978 46.9813 13.8098 47.126 13.1378 47.126ZM13.1378 46.034C13.7165 46.034 14.1831 45.824 14.5378 45.404C14.8925 44.984 15.0698 44.3773 15.0698 43.584C15.0698 42.7907 14.8925 42.1887 14.5378 41.778C14.1831 41.358 13.7165 41.148 13.1378 41.148C12.5498 41.148 12.0785 41.358 11.7238 41.778C11.3691 42.1887 11.1918 42.7907 11.1918 43.584C11.1918 44.3773 11.3691 44.984 11.7238 45.404C12.0785 45.824 12.5498 46.034 13.1378 46.034ZM18.9499 49.618C18.4832 49.618 18.2499 49.38 18.2499 48.904V40.784C18.2499 40.308 18.4785 40.07 18.9359 40.07C19.4025 40.07 19.6359 40.308 19.6359 40.784V41.316C19.8412 40.924 20.1445 40.616 20.5459 40.392C20.9472 40.1587 21.4045 40.042 21.9179 40.042C22.5245 40.042 23.0519 40.1867 23.4999 40.476C23.9572 40.7653 24.3072 41.176 24.5499 41.708C24.8019 42.2307 24.9279 42.856 24.9279 43.584C24.9279 44.312 24.8019 44.942 24.5499 45.474C24.3072 46.006 23.9572 46.4167 23.4999 46.706C23.0519 46.986 22.5245 47.126 21.9179 47.126C21.4139 47.126 20.9612 47.0187 20.5599 46.804C20.1679 46.58 19.8692 46.2767 19.6639 45.894V48.904C19.6639 49.38 19.4259 49.618 18.9499 49.618ZM21.5679 46.034C22.1559 46.034 22.6225 45.824 22.9679 45.404C23.3225 44.984 23.4999 44.3773 23.4999 43.584C23.4999 42.7907 23.3225 42.1887 22.9679 41.778C22.6225 41.358 22.1559 41.148 21.5679 41.148C20.9799 41.148 20.5085 41.358 20.1539 41.778C19.8085 42.1887 19.6359 42.7907 19.6359 43.584C19.6359 44.3773 19.8085 44.984 20.1539 45.404C20.5085 45.824 20.9799 46.034 21.5679 46.034ZM29.0378 47.126C28.5524 47.126 28.0811 47.0793 27.6238 46.986C27.1758 46.8833 26.7838 46.734 26.4478 46.538C26.2798 46.4447 26.1678 46.328 26.1118 46.188C26.0651 46.0387 26.0651 45.8987 26.1118 45.768C26.1678 45.6373 26.2611 45.5487 26.3918 45.502C26.5318 45.4553 26.6998 45.4833 26.8958 45.586C27.1944 45.754 27.5304 45.88 27.9038 45.964C28.2771 46.0387 28.6458 46.076 29.0098 46.076C29.6444 46.076 30.0971 45.992 30.3678 45.824C30.6478 45.6467 30.7878 45.3853 30.7878 45.04C30.7878 44.7227 30.6758 44.48 30.4518 44.312C30.2278 44.144 29.9104 44.06 29.4998 44.06H28.2678C28.0811 44.06 27.9364 44.0133 27.8338 43.92C27.7404 43.8267 27.6938 43.7007 27.6938 43.542C27.6938 43.1967 27.8851 43.024 28.2678 43.024H29.3458C29.7098 43.024 29.9991 42.9447 30.2138 42.786C30.4378 42.618 30.5498 42.3893 30.5498 42.1C30.5498 41.792 30.4284 41.5493 30.1858 41.372C29.9431 41.1853 29.5324 41.092 28.9538 41.092C28.5991 41.092 28.2584 41.1293 27.9318 41.204C27.6144 41.2787 27.3064 41.3907 27.0078 41.54C26.8211 41.6333 26.6578 41.6567 26.5177 41.61C26.3871 41.5633 26.2938 41.4793 26.2378 41.358C26.1818 41.2273 26.1724 41.0967 26.2098 40.966C26.2564 40.826 26.3638 40.714 26.5318 40.63C26.9144 40.4247 27.3251 40.2753 27.7638 40.182C28.2024 40.0887 28.6691 40.042 29.1638 40.042C30.0504 40.042 30.7178 40.2147 31.1658 40.56C31.6231 40.896 31.8518 41.3627 31.8518 41.96C31.8518 42.3147 31.7538 42.6273 31.5578 42.898C31.3618 43.1593 31.0911 43.3507 30.7458 43.472C31.1658 43.5653 31.4971 43.7567 31.7398 44.046C31.9824 44.326 32.1038 44.676 32.1038 45.096C32.1038 45.7213 31.8424 46.216 31.3198 46.58C30.7971 46.944 30.0364 47.126 29.0378 47.126ZM34.4251 47.098C33.9865 47.098 33.7671 46.846 33.7671 46.342V40.756C33.7671 40.2987 33.9818 40.07 34.4111 40.07C34.8405 40.07 35.0551 40.2987 35.0551 40.756V45.124L38.4851 40.532C38.5691 40.4107 38.6718 40.3033 38.7931 40.21C38.9145 40.1167 39.0825 40.07 39.2971 40.07C39.7265 40.07 39.9411 40.322 39.9411 40.826V46.412C39.9411 46.8693 39.7311 47.098 39.3111 47.098C38.8725 47.098 38.6531 46.8693 38.6531 46.412V42.058L35.2231 46.65C35.1391 46.762 35.0365 46.8647 34.9151 46.958C34.7938 47.0513 34.6305 47.098 34.4251 47.098ZM42.78 47.098C42.304 47.098 42.066 46.86 42.066 46.384V40.784C42.066 40.308 42.304 40.07 42.78 40.07C43.2466 40.07 43.48 40.308 43.48 40.784V42.926H46.882V40.784C46.882 40.308 47.1153 40.07 47.582 40.07C48.058 40.07 48.296 40.308 48.296 40.784V46.384C48.296 46.86 48.058 47.098 47.582 47.098C47.1153 47.098 46.882 46.86 46.882 46.384V44.046H43.48V46.384C43.48 46.86 43.2466 47.098 42.78 47.098ZM52.6038 47.126C52.1278 47.126 51.7031 47.0327 51.3298 46.846C50.9565 46.6593 50.6578 46.4073 50.4338 46.09C50.2191 45.7727 50.1118 45.4133 50.1118 45.012C50.1118 44.508 50.2378 44.1113 50.4898 43.822C50.7511 43.5327 51.1758 43.3227 51.7638 43.192C52.3611 43.0613 53.1638 42.996 54.1718 42.996H54.6478V42.632C54.6478 42.1 54.5358 41.7173 54.3118 41.484C54.0878 41.2507 53.7191 41.134 53.2058 41.134C52.9071 41.134 52.5945 41.1713 52.2678 41.246C51.9505 41.3207 51.6191 41.4467 51.2738 41.624C51.0778 41.7173 50.9145 41.7313 50.7838 41.666C50.6625 41.6007 50.5785 41.498 50.5318 41.358C50.4851 41.218 50.4898 41.0733 50.5458 40.924C50.6018 40.7747 50.7185 40.6627 50.8958 40.588C51.3065 40.4013 51.7125 40.266 52.1138 40.182C52.5151 40.0887 52.8931 40.042 53.2478 40.042C54.1811 40.042 54.8718 40.266 55.3198 40.714C55.7678 41.1527 55.9918 41.8433 55.9918 42.786V46.384C55.9918 46.86 55.7725 47.098 55.3338 47.098C54.8858 47.098 54.6618 46.86 54.6618 46.384V45.866C54.4938 46.258 54.2325 46.566 53.8778 46.79C53.5231 47.014 53.0985 47.126 52.6038 47.126ZM52.8838 46.118C53.3878 46.118 53.8078 45.9407 54.1438 45.586C54.4798 45.2313 54.6478 44.7833 54.6478 44.242V43.864H54.1858C53.5045 43.864 52.9678 43.8967 52.5758 43.962C52.1931 44.0273 51.9178 44.1393 51.7498 44.298C51.5911 44.4473 51.5118 44.6573 51.5118 44.928C51.5118 45.2827 51.6331 45.572 51.8758 45.796C52.1185 46.0107 52.4545 46.118 52.8838 46.118Z" fill="black"/>
<circle cx="29" cy="16" r="15.5" fill="white" stroke="#424242"/>
<path d="M24 17.2941L27.3333 21L34 12" stroke="black" stroke-width="2" stroke-linecap="round" stroke-linejoin="round"/>
<path d="M132.432 47.126C131.489 47.126 130.673 46.9207 129.982 46.51C129.291 46.09 128.755 45.502 128.372 44.746C127.999 43.9807 127.812 43.0847 127.812 42.058C127.812 41.022 127.999 40.126 128.372 39.37C128.755 38.614 129.291 38.0307 129.982 37.62C130.673 37.2093 131.489 37.004 132.432 37.004C133.365 37.004 134.177 37.2093 134.868 37.62C135.568 38.0307 136.105 38.614 136.478 39.37C136.861 40.126 137.052 41.0173 137.052 42.044C137.052 43.08 136.861 43.9807 136.478 44.746C136.105 45.502 135.568 46.09 134.868 46.51C134.177 46.9207 133.365 47.126 132.432 47.126ZM132.432 45.866C133.412 45.866 134.173 45.5347 134.714 44.872C135.265 44.2 135.54 43.262 135.54 42.058C135.54 40.854 135.269 39.9207 134.728 39.258C134.187 38.5953 133.421 38.264 132.432 38.264C131.452 38.264 130.687 38.5953 130.136 39.258C129.595 39.9207 129.324 40.854 129.324 42.058C129.324 43.262 129.595 44.2 130.136 44.872C130.687 45.5347 131.452 45.866 132.432 45.866ZM143.553 49.618C143.087 49.618 142.853 49.3707 142.853 48.876V45.964C142.499 46.7387 141.892 47.126 141.033 47.126C140.539 47.126 140.1 46.9813 139.717 46.692C139.344 46.4027 139.05 45.992 138.835 45.46C138.63 44.928 138.527 44.3027 138.527 43.584C138.527 42.856 138.63 42.2307 138.835 41.708C139.05 41.176 139.344 40.7653 139.717 40.476C140.1 40.1867 140.539 40.042 141.033 40.042C141.463 40.042 141.831 40.1447 142.139 40.35C142.447 40.5553 142.685 40.84 142.853 41.204V37.774C142.853 37.2793 143.087 37.032 143.553 37.032C144.029 37.032 144.267 37.2793 144.267 37.774V41.19C144.435 40.826 144.673 40.546 144.981 40.35C145.289 40.1447 145.653 40.042 146.073 40.042C146.568 40.042 147.002 40.1867 147.375 40.476C147.758 40.7653 148.052 41.176 148.257 41.708C148.472 42.2307 148.579 42.856 148.579 43.584C148.579 44.3027 148.472 44.928 148.257 45.46C148.052 45.992 147.763 46.4027 147.389 46.692C147.016 46.9813 146.577 47.126 146.073 47.126C145.233 47.126 144.631 46.7433 144.267 45.978V48.876C144.267 49.3707 144.029 49.618 143.553 49.618ZM141.411 46.048C141.859 46.048 142.214 45.8427 142.475 45.432C142.746 45.0213 142.881 44.4053 142.881 43.584C142.881 42.772 142.746 42.1607 142.475 41.75C142.214 41.3393 141.859 41.134 141.411 41.134C140.973 41.134 140.618 41.3393 140.347 41.75C140.077 42.1607 139.941 42.772 139.941 43.584C139.941 44.4053 140.072 45.0213 140.333 45.432C140.604 45.8427 140.963 46.048 141.411 46.048ZM145.695 46.048C146.143 46.048 146.498 45.8427 146.759 45.432C147.03 45.0213 147.165 44.4053 147.165 43.584C147.165 42.772 147.03 42.1607 146.759 41.75C146.498 41.3393 146.143 41.134 145.695 41.134C145.247 41.134 144.893 41.3393 144.631 41.75C144.37 42.1607 144.239 42.772 144.239 43.584C144.239 44.4053 144.37 45.0213 144.631 45.432C144.893 45.8427 145.247 46.048 145.695 46.048ZM153.304 47.126C152.613 47.126 152.016 46.9813 151.512 46.692C151.008 46.4027 150.616 45.9967 150.336 45.474C150.065 44.942 149.93 44.312 149.93 43.584C149.93 42.856 150.065 42.2307 150.336 41.708C150.616 41.176 151.008 40.7653 151.512 40.476C152.016 40.1867 152.613 40.042 153.304 40.042C153.976 40.042 154.564 40.1867 155.068 40.476C155.572 40.7653 155.964 41.176 156.244 41.708C156.524 42.2307 156.664 42.856 156.664 43.584C156.664 44.312 156.524 44.942 156.244 45.474C155.964 45.9967 155.572 46.4027 155.068 46.692C154.564 46.9813 153.976 47.126 153.304 47.126ZM153.304 46.034C153.882 46.034 154.349 45.824 154.704 45.404C155.058 44.984 155.236 44.3773 155.236 43.584C155.236 42.7907 155.058 42.1887 154.704 41.778C154.349 41.358 153.882 41.148 153.304 41.148C152.716 41.148 152.244 41.358 151.89 41.778C151.535 42.1887 151.358 42.7907 151.358 43.584C151.358 44.3773 151.535 44.984 151.89 45.404C152.244 45.824 152.716 46.034 153.304 46.034ZM159.116 49.618C158.649 49.618 158.416 49.38 158.416 48.904V40.784C158.416 40.308 158.645 40.07 159.102 40.07C159.569 40.07 159.802 40.308 159.802 40.784V41.316C160.007 40.924 160.311 40.616 160.712 40.392C161.113 40.1587 161.571 40.042 162.084 40.042C162.691 40.042 163.218 40.1867 163.666 40.476C164.123 40.7653 164.473 41.176 164.716 41.708C164.968 42.2307 165.094 42.856 165.094 43.584C165.094 44.312 164.968 44.942 164.716 45.474C164.473 46.006 164.123 46.4167 163.666 46.706C163.218 46.986 162.691 47.126 162.084 47.126C161.58 47.126 161.127 47.0187 160.726 46.804C160.334 46.58 160.035 46.2767 159.83 45.894V48.904C159.83 49.38 159.592 49.618 159.116 49.618ZM161.734 46.034C162.322 46.034 162.789 45.824 163.134 45.404C163.489 44.984 163.666 44.3773 163.666 43.584C163.666 42.7907 163.489 42.1887 163.134 41.778C162.789 41.358 162.322 41.148 161.734 41.148C161.146 41.148 160.675 41.358 160.32 41.778C159.975 42.1887 159.802 42.7907 159.802 43.584C159.802 44.3773 159.975 44.984 160.32 45.404C160.675 45.824 161.146 46.034 161.734 46.034ZM167.454 47.098C167.034 47.098 166.824 46.874 166.824 46.426V40.826C166.824 40.322 167.038 40.07 167.468 40.07C167.673 40.07 167.832 40.1213 167.944 40.224C168.056 40.3267 168.149 40.4433 168.224 40.574L170.464 44.494L172.69 40.574C172.774 40.434 172.872 40.3173 172.984 40.224C173.096 40.1213 173.25 40.07 173.446 40.07C173.875 40.07 174.09 40.322 174.09 40.826V46.426C174.09 46.874 173.88 47.098 173.46 47.098C173.049 47.098 172.844 46.874 172.844 46.426V42.366L170.954 45.642C170.907 45.726 170.846 45.8007 170.772 45.866C170.697 45.9313 170.594 45.964 170.464 45.964C170.324 45.964 170.216 45.9313 170.142 45.866C170.076 45.7913 170.02 45.7167 169.974 45.642L168.07 42.366V46.426C168.07 46.874 167.864 47.098 167.454 47.098ZM181.564 47.098C181.098 47.098 180.864 46.86 180.864 46.384V41.302H178.386V42.128C178.386 43.5187 178.232 44.5967 177.924 45.362C177.616 46.1273 177.103 46.678 176.384 47.014C176.188 47.098 176.011 47.1073 175.852 47.042C175.694 46.986 175.577 46.888 175.502 46.748C175.428 46.608 175.409 46.4587 175.446 46.3C175.493 46.1413 175.61 46.006 175.796 45.894C176.3 45.6047 176.636 45.1707 176.804 44.592C176.982 44.004 177.07 43.1687 177.07 42.086V40.966C177.07 40.434 177.336 40.168 177.868 40.168H181.48C182.012 40.168 182.278 40.434 182.278 40.966V46.384C182.278 46.86 182.04 47.098 181.564 47.098ZM187.626 47.126C186.506 47.126 185.624 46.8133 184.98 46.188C184.336 45.5533 184.014 44.69 184.014 43.598C184.014 42.898 184.154 42.282 184.434 41.75C184.723 41.2087 185.12 40.7887 185.624 40.49C186.128 40.1913 186.706 40.042 187.36 40.042C188.302 40.042 189.044 40.3453 189.586 40.952C190.127 41.5493 190.398 42.3753 190.398 43.43C190.398 43.7473 190.211 43.906 189.838 43.906H185.386C185.488 45.3247 186.24 46.034 187.64 46.034C187.92 46.034 188.214 46.0013 188.522 45.936C188.83 45.8613 189.128 45.7307 189.418 45.544C189.614 45.432 189.782 45.3947 189.922 45.432C190.071 45.46 190.178 45.5393 190.244 45.67C190.309 45.7913 190.318 45.9313 190.272 46.09C190.234 46.2393 190.127 46.37 189.95 46.482C189.632 46.6967 189.259 46.86 188.83 46.972C188.41 47.0747 188.008 47.126 187.626 47.126ZM187.416 41.036C186.828 41.036 186.361 41.218 186.016 41.582C185.67 41.946 185.46 42.4313 185.386 43.038H189.208C189.18 42.4033 189.012 41.9133 188.704 41.568C188.396 41.2133 187.966 41.036 187.416 41.036ZM192.79 47.098C192.314 47.098 192.076 46.86 192.076 46.384V40.784C192.076 40.308 192.314 40.07 192.79 40.07C193.256 40.07 193.49 40.308 193.49 40.784V42.926H196.892V40.784C196.892 40.308 197.125 40.07 197.592 40.07C198.068 40.07 198.306 40.308 198.306 40.784V46.384C198.306 46.86 198.068 47.098 197.592 47.098C197.125 47.098 196.892 46.86 196.892 46.384V44.046H193.49V46.384C193.49 46.86 193.256 47.098 192.79 47.098ZM201.074 47.098C200.635 47.098 200.416 46.846 200.416 46.342V40.756C200.416 40.2987 200.63 40.07 201.06 40.07C201.489 40.07 201.704 40.2987 201.704 40.756V45.124L205.134 40.532C205.218 40.4107 205.32 40.3033 205.442 40.21C205.563 40.1167 205.731 40.07 205.946 40.07C206.375 40.07 206.59 40.322 206.59 40.826V46.412C206.59 46.8693 206.38 47.098 205.96 47.098C205.521 47.098 205.302 46.8693 205.302 46.412V42.058L201.872 46.65C201.788 46.762 201.685 46.8647 201.564 46.958C201.442 47.0513 201.279 47.098 201.074 47.098ZM211.934 47.126C210.814 47.126 209.932 46.8133 209.288 46.188C208.644 45.5533 208.322 44.69 208.322 43.598C208.322 42.898 208.462 42.282 208.742 41.75C209.032 41.2087 209.428 40.7887 209.932 40.49C210.436 40.1913 211.015 40.042 211.668 40.042C212.611 40.042 213.353 40.3453 213.894 40.952C214.436 41.5493 214.706 42.3753 214.706 43.43C214.706 43.7473 214.52 43.906 214.146 43.906H209.694C209.797 45.3247 210.548 46.034 211.948 46.034C212.228 46.034 212.522 46.0013 212.83 45.936C213.138 45.8613 213.437 45.7307 213.726 45.544C213.922 45.432 214.09 45.3947 214.23 45.432C214.38 45.46 214.487 45.5393 214.552 45.67C214.618 45.7913 214.627 45.9313 214.58 46.09C214.543 46.2393 214.436 46.37 214.258 46.482C213.941 46.6967 213.568 46.86 213.138 46.972C212.718 47.0747 212.317 47.126 211.934 47.126ZM211.724 41.036C211.136 41.036 210.67 41.218 210.324 41.582C209.979 41.946 209.769 42.4313 209.694 43.038H213.516C213.488 42.4033 213.32 41.9133 213.012 41.568C212.704 41.2133 212.275 41.036 211.724 41.036ZM222.456 47.126C221.97 47.126 221.499 47.0793 221.042 46.986C220.594 46.8833 220.202 46.734 219.866 46.538C219.698 46.4447 219.586 46.328 219.53 46.188C219.483 46.0387 219.483 45.8987 219.53 45.768C219.586 45.6373 219.679 45.5487 219.81 45.502C219.95 45.4553 220.118 45.4833 220.314 45.586C220.612 45.754 220.948 45.88 221.322 45.964C221.695 46.0387 222.064 46.076 222.428 46.076C223.062 46.076 223.515 45.992 223.786 45.824C224.066 45.6467 224.206 45.3853 224.206 45.04C224.206 44.7227 224.094 44.48 223.87 44.312C223.646 44.144 223.328 44.06 222.918 44.06H221.686C221.499 44.06 221.354 44.0133 221.252 43.92C221.158 43.8267 221.112 43.7007 221.112 43.542C221.112 43.1967 221.303 43.024 221.686 43.024H222.764C223.128 43.024 223.417 42.9447 223.632 42.786C223.856 42.618 223.968 42.3893 223.968 42.1C223.968 41.792 223.846 41.5493 223.604 41.372C223.361 41.1853 222.95 41.092 222.372 41.092C222.017 41.092 221.676 41.1293 221.35 41.204C221.032 41.2787 220.724 41.3907 220.426 41.54C220.239 41.6333 220.076 41.6567 219.936 41.61C219.805 41.5633 219.712 41.4793 219.656 41.358C219.6 41.2273 219.59 41.0967 219.628 40.966C219.674 40.826 219.782 40.714 219.95 40.63C220.332 40.4247 220.743 40.2753 221.182 40.182C221.62 40.0887 222.087 40.042 222.582 40.042C223.468 40.042 224.136 40.2147 224.584 40.56C225.041 40.896 225.27 41.3627 225.27 41.96C225.27 42.3147 225.172 42.6273 224.976 42.898C224.78 43.1593 224.509 43.3507 224.164 43.472C224.584 43.5653 224.915 43.7567 225.158 44.046C225.4 44.326 225.522 44.676 225.522 45.096C225.522 45.7213 225.26 46.216 224.738 46.58C224.215 46.944 223.454 47.126 222.456 47.126ZM229.383 47.126C228.907 47.126 228.482 47.0327 228.109 46.846C227.736 46.6593 227.437 46.4073 227.213 46.09C226.998 45.7727 226.891 45.4133 226.891 45.012C226.891 44.508 227.017 44.1113 227.269 43.822C227.53 43.5327 227.955 43.3227 228.543 43.192C229.14 43.0613 229.943 42.996 230.951 42.996H231.427V42.632C231.427 42.1 231.315 41.7173 231.091 41.484C230.867 41.2507 230.498 41.134 229.985 41.134C229.686 41.134 229.374 41.1713 229.047 41.246C228.73 41.3207 228.398 41.4467 228.053 41.624C227.857 41.7173 227.694 41.7313 227.563 41.666C227.442 41.6007 227.358 41.498 227.311 41.358C227.264 41.218 227.269 41.0733 227.325 40.924C227.381 40.7747 227.498 40.6627 227.675 40.588C228.086 40.4013 228.492 40.266 228.893 40.182C229.294 40.0887 229.672 40.042 230.027 40.042C230.96 40.042 231.651 40.266 232.099 40.714C232.547 41.1527 232.771 41.8433 232.771 42.786V46.384C232.771 46.86 232.552 47.098 232.113 47.098C231.665 47.098 231.441 46.86 231.441 46.384V45.866C231.273 46.258 231.012 46.566 230.657 46.79C230.302 47.014 229.878 47.126 229.383 47.126ZM229.663 46.118C230.167 46.118 230.587 45.9407 230.923 45.586C231.259 45.2313 231.427 44.7833 231.427 44.242V43.864H230.965C230.284 43.864 229.747 43.8967 229.355 43.962C228.972 44.0273 228.697 44.1393 228.529 44.298C228.37 44.4473 228.291 44.6573 228.291 44.928C228.291 45.2827 228.412 45.572 228.655 45.796C228.898 46.0107 229.234 46.118 229.663 46.118ZM235.583 47.098C235.107 47.098 234.869 46.86 234.869 46.384V40.812C234.869 40.336 235.107 40.098 235.583 40.098C236.049 40.098 236.283 40.336 236.283 40.812V42.94H237.431L239.363 40.42C239.493 40.2333 239.643 40.1307 239.811 40.112C239.988 40.0933 240.142 40.1307 240.273 40.224C240.413 40.308 240.497 40.434 240.525 40.602C240.562 40.7607 240.515 40.9333 240.385 41.12L238.775 43.234C238.999 43.3367 239.204 43.4953 239.391 43.71C239.587 43.9153 239.787 44.2 239.993 44.564L240.917 46.132C241.029 46.328 241.052 46.5053 240.987 46.664C240.921 46.8227 240.809 46.9393 240.651 47.014C240.501 47.0887 240.338 47.1073 240.161 47.07C239.993 47.0327 239.848 46.9113 239.727 46.706L238.705 44.956C238.49 44.6013 238.28 44.3633 238.075 44.242C237.879 44.1113 237.603 44.046 237.249 44.046H236.283V46.384C236.283 46.86 236.049 47.098 235.583 47.098ZM244.641 47.126C244.165 47.126 243.74 47.0327 243.367 46.846C242.994 46.6593 242.695 46.4073 242.471 46.09C242.256 45.7727 242.149 45.4133 242.149 45.012C242.149 44.508 242.275 44.1113 242.527 43.822C242.788 43.5327 243.213 43.3227 243.801 43.192C244.398 43.0613 245.201 42.996 246.209 42.996H246.685V42.632C246.685 42.1 246.573 41.7173 246.349 41.484C246.125 41.2507 245.756 41.134 245.243 41.134C244.944 41.134 244.632 41.1713 244.305 41.246C243.988 41.3207 243.656 41.4467 243.311 41.624C243.115 41.7173 242.952 41.7313 242.821 41.666C242.7 41.6007 242.616 41.498 242.569 41.358C242.522 41.218 242.527 41.0733 242.583 40.924C242.639 40.7747 242.756 40.6627 242.933 40.588C243.344 40.4013 243.75 40.266 244.151 40.182C244.552 40.0887 244.93 40.042 245.285 40.042C246.218 40.042 246.909 40.266 247.357 40.714C247.805 41.1527 248.029 41.8433 248.029 42.786V46.384C248.029 46.86 247.81 47.098 247.371 47.098C246.923 47.098 246.699 46.86 246.699 46.384V45.866C246.531 46.258 246.27 46.566 245.915 46.79C245.56 47.014 245.136 47.126 244.641 47.126ZM244.921 46.118C245.425 46.118 245.845 45.9407 246.181 45.586C246.517 45.2313 246.685 44.7833 246.685 44.242V43.864H246.223C245.542 43.864 245.005 43.8967 244.613 43.962C244.23 44.0273 243.955 44.1393 243.787 44.298C243.628 44.4473 243.549 44.6573 243.549 44.928C243.549 45.2827 243.67 45.572 243.913 45.796C244.156 46.0107 244.492 46.118 244.921 46.118ZM252.507 47.126C252.021 47.126 251.55 47.0793 251.093 46.986C250.645 46.8833 250.253 46.734 249.917 46.538C249.749 46.4447 249.637 46.328 249.581 46.188C249.534 46.0387 249.534 45.8987 249.581 45.768C249.637 45.6373 249.73 45.5487 249.861 45.502C250.001 45.4553 250.169 45.4833 250.365 45.586C250.663 45.754 250.999 45.88 251.373 45.964C251.746 46.0387 252.115 46.076 252.479 46.076C253.113 46.076 253.566 45.992 253.837 45.824C254.117 45.6467 254.257 45.3853 254.257 45.04C254.257 44.7227 254.145 44.48 253.921 44.312C253.697 44.144 253.379 44.06 252.969 44.06H251.737C251.55 44.06 251.405 44.0133 251.303 43.92C251.209 43.8267 251.163 43.7007 251.163 43.542C251.163 43.1967 251.354 43.024 251.737 43.024H252.815C253.179 43.024 253.468 42.9447 253.683 42.786C253.907 42.618 254.019 42.3893 254.019 42.1C254.019 41.792 253.897 41.5493 253.655 41.372C253.412 41.1853 253.001 41.092 252.423 41.092C252.068 41.092 251.727 41.1293 251.401 41.204C251.083 41.2787 250.775 41.3907 250.477 41.54C250.29 41.6333 250.127 41.6567 249.986 41.61C249.856 41.5633 249.763 41.4793 249.707 41.358C249.651 41.2273 249.641 41.0967 249.679 40.966C249.725 40.826 249.833 40.714 250.001 40.63C250.383 40.4247 250.794 40.2753 251.233 40.182C251.671 40.0887 252.138 40.042 252.633 40.042C253.519 40.042 254.187 40.2147 254.635 40.56C255.092 40.896 255.321 41.3627 255.321 41.96C255.321 42.3147 255.223 42.6273 255.027 42.898C254.831 43.1593 254.56 43.3507 254.215 43.472C254.635 43.5653 254.966 43.7567 255.209 44.046C255.451 44.326 255.573 44.676 255.573 45.096C255.573 45.7213 255.311 46.216 254.789 46.58C254.266 46.944 253.505 47.126 252.507 47.126ZM259.434 47.126C258.958 47.126 258.533 47.0327 258.16 46.846C257.787 46.6593 257.488 46.4073 257.264 46.09C257.049 45.7727 256.942 45.4133 256.942 45.012C256.942 44.508 257.068 44.1113 257.32 43.822C257.581 43.5327 258.006 43.3227 258.594 43.192C259.191 43.0613 259.994 42.996 261.002 42.996H261.478V42.632C261.478 42.1 261.366 41.7173 261.142 41.484C260.918 41.2507 260.549 41.134 260.036 41.134C259.737 41.134 259.425 41.1713 259.098 41.246C258.781 41.3207 258.449 41.4467 258.104 41.624C257.908 41.7173 257.745 41.7313 257.614 41.666C257.493 41.6007 257.409 41.498 257.362 41.358C257.315 41.218 257.32 41.0733 257.376 40.924C257.432 40.7747 257.549 40.6627 257.726 40.588C258.137 40.4013 258.543 40.266 258.944 40.182C259.345 40.0887 259.723 40.042 260.078 40.042C261.011 40.042 261.702 40.266 262.15 40.714C262.598 41.1527 262.822 41.8433 262.822 42.786V46.384C262.822 46.86 262.603 47.098 262.164 47.098C261.716 47.098 261.492 46.86 261.492 46.384V45.866C261.324 46.258 261.063 46.566 260.708 46.79C260.353 47.014 259.929 47.126 259.434 47.126ZM259.714 46.118C260.218 46.118 260.638 45.9407 260.974 45.586C261.31 45.2313 261.478 44.7833 261.478 44.242V43.864H261.016C260.335 43.864 259.798 43.8967 259.406 43.962C259.023 44.0273 258.748 44.1393 258.58 44.298C258.421 44.4473 258.342 44.6573 258.342 44.928C258.342 45.2827 258.463 45.572 258.706 45.796C258.949 46.0107 259.285 46.118 259.714 46.118Z" fill="black"/>
<circle cx="193" cy="16" r="15.5" fill="white" stroke="#424242"/>
<path d="M188 17.2941L191.333 21L198 12" stroke="black" stroke-width="2" stroke-linecap="round" stroke-linejoin="round"/>
<path d="M316.312 47.126C315.603 47.126 314.949 47.042 314.352 46.874C313.755 46.706 313.241 46.4633 312.812 46.146C312.644 46.0247 312.541 45.8847 312.504 45.726C312.476 45.558 312.499 45.4087 312.574 45.278C312.649 45.138 312.761 45.0493 312.91 45.012C313.059 44.9653 313.232 44.998 313.428 45.11C314.193 45.6233 315.122 45.88 316.214 45.88C317.063 45.88 317.684 45.74 318.076 45.46C318.477 45.1707 318.678 44.7413 318.678 44.172C318.678 43.108 317.992 42.576 316.62 42.576H314.744C314.324 42.576 314.114 42.38 314.114 41.988C314.114 41.6053 314.324 41.414 314.744 41.414H316.396C317.759 41.414 318.44 40.896 318.44 39.86C318.44 39.3653 318.258 38.9733 317.894 38.684C317.53 38.3853 316.975 38.236 316.228 38.236C315.771 38.236 315.323 38.2967 314.884 38.418C314.455 38.53 314.058 38.7073 313.694 38.95C313.498 39.0713 313.321 39.1087 313.162 39.062C313.013 39.0153 312.901 38.922 312.826 38.782C312.761 38.642 312.747 38.4927 312.784 38.334C312.821 38.166 312.929 38.026 313.106 37.914C313.554 37.606 314.058 37.3773 314.618 37.228C315.187 37.0787 315.771 37.004 316.368 37.004C317.535 37.004 318.412 37.2513 319 37.746C319.588 38.2407 319.882 38.894 319.882 39.706C319.882 40.238 319.742 40.6953 319.462 41.078C319.182 41.4607 318.804 41.7407 318.328 41.918C318.888 42.0673 319.327 42.3427 319.644 42.744C319.961 43.1453 320.12 43.654 320.12 44.27C320.12 45.1473 319.807 45.8427 319.182 46.356C318.566 46.8693 317.609 47.126 316.312 47.126ZM324.19 47.126C323.714 47.126 323.289 47.0327 322.916 46.846C322.542 46.6593 322.244 46.4073 322.02 46.09C321.805 45.7727 321.698 45.4133 321.698 45.012C321.698 44.508 321.824 44.1113 322.076 43.822C322.337 43.5327 322.762 43.3227 323.35 43.192C323.947 43.0613 324.75 42.996 325.758 42.996H326.234V42.632C326.234 42.1 326.122 41.7173 325.898 41.484C325.674 41.2507 325.305 41.134 324.792 41.134C324.493 41.134 324.18 41.1713 323.854 41.246C323.536 41.3207 323.205 41.4467 322.86 41.624C322.664 41.7173 322.5 41.7313 322.37 41.666C322.248 41.6007 322.164 41.498 322.118 41.358C322.071 41.218 322.076 41.0733 322.132 40.924C322.188 40.7747 322.304 40.6627 322.482 40.588C322.892 40.4013 323.298 40.266 323.7 40.182C324.101 40.0887 324.479 40.042 324.834 40.042C325.767 40.042 326.458 40.266 326.906 40.714C327.354 41.1527 327.578 41.8433 327.578 42.786V46.384C327.578 46.86 327.358 47.098 326.92 47.098C326.472 47.098 326.248 46.86 326.248 46.384V45.866C326.08 46.258 325.818 46.566 325.464 46.79C325.109 47.014 324.684 47.126 324.19 47.126ZM324.47 46.118C324.974 46.118 325.394 45.9407 325.73 45.586C326.066 45.2313 326.234 44.7833 326.234 44.242V43.864H325.772C325.09 43.864 324.554 43.8967 324.162 43.962C323.779 44.0273 323.504 44.1393 323.336 44.298C323.177 44.4473 323.098 44.6573 323.098 44.928C323.098 45.2827 323.219 45.572 323.462 45.796C323.704 46.0107 324.04 46.118 324.47 46.118ZM330.389 47.098C329.913 47.098 329.675 46.86 329.675 46.384V40.812C329.675 40.336 329.913 40.098 330.389 40.098C330.856 40.098 331.089 40.336 331.089 40.812V42.94H332.237L334.169 40.42C334.3 40.2333 334.449 40.1307 334.617 40.112C334.795 40.0933 334.949 40.1307 335.079 40.224C335.219 40.308 335.303 40.434 335.331 40.602C335.369 40.7607 335.322 40.9333 335.191 41.12L333.581 43.234C333.805 43.3367 334.011 43.4953 334.197 43.71C334.393 43.9153 334.594 44.2 334.799 44.564L335.723 46.132C335.835 46.328 335.859 46.5053 335.793 46.664C335.728 46.8227 335.616 46.9393 335.457 47.014C335.308 47.0887 335.145 47.1073 334.967 47.07C334.799 47.0327 334.655 46.9113 334.533 46.706L333.511 44.956C333.297 44.6013 333.087 44.3633 332.881 44.242C332.685 44.1113 332.41 44.046 332.055 44.046H331.089V46.384C331.089 46.86 330.856 47.098 330.389 47.098ZM339.448 47.126C338.972 47.126 338.547 47.0327 338.174 46.846C337.8 46.6593 337.502 46.4073 337.278 46.09C337.063 45.7727 336.956 45.4133 336.956 45.012C336.956 44.508 337.082 44.1113 337.334 43.822C337.595 43.5327 338.02 43.3227 338.608 43.192C339.205 43.0613 340.008 42.996 341.016 42.996H341.492V42.632C341.492 42.1 341.38 41.7173 341.156 41.484C340.932 41.2507 340.563 41.134 340.05 41.134C339.751 41.134 339.438 41.1713 339.112 41.246C338.794 41.3207 338.463 41.4467 338.118 41.624C337.922 41.7173 337.758 41.7313 337.628 41.666C337.506 41.6007 337.422 41.498 337.376 41.358C337.329 41.218 337.334 41.0733 337.39 40.924C337.446 40.7747 337.562 40.6627 337.74 40.588C338.15 40.4013 338.556 40.266 338.958 40.182C339.359 40.0887 339.737 40.042 340.092 40.042C341.025 40.042 341.716 40.266 342.164 40.714C342.612 41.1527 342.836 41.8433 342.836 42.786V46.384C342.836 46.86 342.616 47.098 342.178 47.098C341.73 47.098 341.506 46.86 341.506 46.384V45.866C341.338 46.258 341.076 46.566 340.722 46.79C340.367 47.014 339.942 47.126 339.448 47.126ZM339.728 46.118C340.232 46.118 340.652 45.9407 340.988 45.586C341.324 45.2313 341.492 44.7833 341.492 44.242V43.864H341.03C340.348 43.864 339.812 43.8967 339.42 43.962C339.037 44.0273 338.762 44.1393 338.594 44.298C338.435 44.4473 338.356 44.6573 338.356 44.928C338.356 45.2827 338.477 45.572 338.72 45.796C338.962 46.0107 339.298 46.118 339.728 46.118ZM347.313 47.126C346.828 47.126 346.356 47.0793 345.899 46.986C345.451 46.8833 345.059 46.734 344.723 46.538C344.555 46.4447 344.443 46.328 344.387 46.188C344.34 46.0387 344.34 45.8987 344.387 45.768C344.443 45.6373 344.536 45.5487 344.667 45.502C344.807 45.4553 344.975 45.4833 345.171 45.586C345.47 45.754 345.806 45.88 346.179 45.964C346.552 46.0387 346.921 46.076 347.285 46.076C347.92 46.076 348.372 45.992 348.643 45.824C348.923 45.6467 349.063 45.3853 349.063 45.04C349.063 44.7227 348.951 44.48 348.727 44.312C348.503 44.144 348.186 44.06 347.775 44.06H346.543C346.356 44.06 346.212 44.0133 346.109 43.92C346.016 43.8267 345.969 43.7007 345.969 43.542C345.969 43.1967 346.16 43.024 346.543 43.024H347.621C347.985 43.024 348.274 42.9447 348.489 42.786C348.713 42.618 348.825 42.3893 348.825 42.1C348.825 41.792 348.704 41.5493 348.461 41.372C348.218 41.1853 347.808 41.092 347.229 41.092C346.874 41.092 346.534 41.1293 346.207 41.204C345.89 41.2787 345.582 41.3907 345.283 41.54C345.096 41.6333 344.933 41.6567 344.793 41.61C344.662 41.5633 344.569 41.4793 344.513 41.358C344.457 41.2273 344.448 41.0967 344.485 40.966C344.532 40.826 344.639 40.714 344.807 40.63C345.19 40.4247 345.6 40.2753 346.039 40.182C346.478 40.0887 346.944 40.042 347.439 40.042C348.326 40.042 348.993 40.2147 349.441 40.56C349.898 40.896 350.127 41.3627 350.127 41.96C350.127 42.3147 350.029 42.6273 349.833 42.898C349.637 43.1593 349.366 43.3507 349.021 43.472C349.441 43.5653 349.772 43.7567 350.015 44.046C350.258 44.326 350.379 44.676 350.379 45.096C350.379 45.7213 350.118 46.216 349.595 46.58C349.072 46.944 348.312 47.126 347.313 47.126ZM356.448 47.098C355.972 47.098 355.734 46.86 355.734 46.384V40.966C355.734 40.434 356 40.168 356.532 40.168H361.124C361.656 40.168 361.922 40.434 361.922 40.966V46.384C361.922 46.86 361.684 47.098 361.208 47.098C360.741 47.098 360.508 46.86 360.508 46.384V41.302H357.148V46.384C357.148 46.86 356.915 47.098 356.448 47.098ZM364.747 49.618C364.28 49.618 364.047 49.38 364.047 48.904V40.784C364.047 40.308 364.275 40.07 364.733 40.07C365.199 40.07 365.433 40.308 365.433 40.784V41.316C365.638 40.924 365.941 40.616 366.343 40.392C366.744 40.1587 367.201 40.042 367.715 40.042C368.321 40.042 368.849 40.1867 369.297 40.476C369.754 40.7653 370.104 41.176 370.347 41.708C370.599 42.2307 370.725 42.856 370.725 43.584C370.725 44.312 370.599 44.942 370.347 45.474C370.104 46.006 369.754 46.4167 369.297 46.706C368.849 46.986 368.321 47.126 367.715 47.126C367.211 47.126 366.758 47.0187 366.357 46.804C365.965 46.58 365.666 46.2767 365.461 45.894V48.904C365.461 49.38 365.223 49.618 364.747 49.618ZM367.365 46.034C367.953 46.034 368.419 45.824 368.765 45.404C369.119 44.984 369.297 44.3773 369.297 43.584C369.297 42.7907 369.119 42.1887 368.765 41.778C368.419 41.358 367.953 41.148 367.365 41.148C366.777 41.148 366.305 41.358 365.951 41.778C365.605 42.1887 365.433 42.7907 365.433 43.584C365.433 44.3773 365.605 44.984 365.951 45.404C366.305 45.824 366.777 46.034 367.365 46.034ZM373.113 47.098C372.674 47.098 372.455 46.846 372.455 46.342V40.756C372.455 40.2987 372.669 40.07 373.099 40.07C373.528 40.07 373.743 40.2987 373.743 40.756V45.124L377.173 40.532C377.257 40.4107 377.359 40.3033 377.481 40.21C377.602 40.1167 377.77 40.07 377.985 40.07C378.414 40.07 378.629 40.322 378.629 40.826V46.412C378.629 46.8693 378.419 47.098 377.999 47.098C377.56 47.098 377.341 46.8693 377.341 46.412V42.058L373.911 46.65C373.827 46.762 373.724 46.8647 373.603 46.958C373.481 47.0513 373.318 47.098 373.113 47.098ZM381.467 47.098C380.991 47.098 380.753 46.86 380.753 46.384V40.784C380.753 40.308 380.991 40.07 381.467 40.07C381.934 40.07 382.167 40.308 382.167 40.784V42.926H385.569V40.784C385.569 40.308 385.803 40.07 386.269 40.07C386.745 40.07 386.983 40.308 386.983 40.784V46.384C386.983 46.86 386.745 47.098 386.269 47.098C385.803 47.098 385.569 46.86 385.569 46.384V44.046H382.167V46.384C382.167 46.86 381.934 47.098 381.467 47.098ZM393.993 47.098C393.555 47.098 393.335 46.874 393.335 46.426V44.508H392.453C392.127 44.508 391.842 44.592 391.599 44.76C391.366 44.928 391.179 45.1427 391.039 45.404L390.297 46.706C390.167 46.9207 390.008 47.0467 389.821 47.084C389.644 47.1213 389.476 47.0933 389.317 47C389.159 46.9067 389.047 46.776 388.981 46.608C388.925 46.4307 388.953 46.244 389.065 46.048L389.625 45.096C389.737 44.9093 389.877 44.7413 390.045 44.592C390.223 44.4333 390.414 44.3167 390.619 44.242C390.041 44.1487 389.597 43.934 389.289 43.598C388.981 43.2527 388.827 42.8047 388.827 42.254C388.827 41.6193 389.042 41.1153 389.471 40.742C389.901 40.3593 390.54 40.168 391.389 40.168H393.923C394.409 40.168 394.651 40.4107 394.651 40.896V46.426C394.651 46.6407 394.591 46.8087 394.469 46.93C394.348 47.042 394.189 47.098 393.993 47.098ZM391.683 43.542H393.335V41.134H391.683C391.17 41.134 390.792 41.2413 390.549 41.456C390.307 41.6613 390.185 41.9507 390.185 42.324C390.185 42.7067 390.307 43.0053 390.549 43.22C390.792 43.4347 391.17 43.542 391.683 43.542ZM398.919 47.098C398.443 47.098 398.205 46.86 398.205 46.384V41.302H396.301C395.89 41.302 395.685 41.1107 395.685 40.728C395.685 40.3547 395.89 40.168 396.301 40.168H401.523C401.934 40.168 402.139 40.3547 402.139 40.728C402.139 41.1107 401.934 41.302 401.523 41.302H399.619V46.384C399.619 46.86 399.386 47.098 398.919 47.098Z" fill="black"/>
<circle cx="357" cy="16" r="15.5" fill="white" stroke="#424242"/>
<path d="M352 17.2941L355.333 21L362 12" stroke="black" stroke-width="2" stroke-linecap="round" stroke-linejoin="round"/>
<line x1="53" y1="16.5" x2="167" y2="16.5" stroke="black"/>
<line x1="217" y1="16.5" x2="331" y2="16.5" stroke="black"/>
</svg>
